<?xml version="1.0" encoding="UTF-8" standalone="no"?>
<svg width="600px" height="219px" viewBox="0 0 600 219" version="1.1" xmlns="http://www.w3.org/2000/svg" xmlns:xlink="http://www.w3.org/1999/xlink" xmlns:sketch="http://www.bohemiancoding.com/sketch/ns">
    <!-- Generator: Sketch 3.3.3 (12081) - http://www.bohemiancoding.com/sketch -->
    <title>Artboard 1</title>
    <desc>Created with Sketch.</desc>
    <defs></defs>
    <g id="Page-1" stroke="none" stroke-width="1" fill="none" fill-rule="evenodd" sketch:type="MSPage">
        <g id="Artboard-1" sketch:type="MSArtboardGroup">
            <g id="logo" sketch:type="MSLayerGroup" transform="translate(247.778907, 0.000000)">
                <path d="M93.4096593,104.442186 L11.0325267,104.442186 C4.9394358,104.442186 0,99.5028826 0,93.4099551 L0,11.035031 C0,4.93930338 4.9394358,0 11.0325267,0 L93.4096593,0 C99.5027502,0 104.442186,4.93930338 104.442186,11.035031 L104.442186,93.4099551 C104.442186,99.5028826 99.5027502,104.442186 93.4096593,104.442186 L93.4096593,104.442186 L93.4096593,104.442186 Z" id="Fill-1" fill="#FFFFFF" sketch:type="MSShapeGroup"></path>
                <path d="M35.7302216,99.855772 L92.0137094,99.8613884 C95.8080703,99.8613884 98.9311861,96.7443052 98.9311861,92.95045 L98.9452288,36.646381 L35.7302216,99.855772" id="Fill-3" fill="#133729" sketch:type="MSShapeGroup"></path>
                <path d="M92.0462461,5.49695716 L71.4136437,5.49695716 L4.58079763,72.4038145 L4.58079763,92.949442 C4.58079763,96.7452782 7.60504756,99.8557939 11.4685898,99.8557939 L31.7654753,99.8613884 L98.9368359,32.6887946 L98.9452288,12.3893229 C98.9452288,8.52915052 95.825859,5.49695716 92.0462461,5.49695716 L92.0462461,5.49695716 Z" id="Fill-4" fill="#9C213B" sketch:type="MSShapeGroup"></path>
                <path d="M11.4484748,5.49695716 C7.60558089,5.49695716 4.58914569,8.50410404 4.58914569,12.3485786 L4.58079763,67.795805 L66.8796454,5.51364807 L11.4484748,5.49695716" id="Fill-5" fill="#133729" sketch:type="MSShapeGroup"></path>
                <path d="M38.4787001,98.9452288 C45.8066137,98.1107637 49.9760848,98.2047101 53.1372525,86.8482485 C53.0500479,84.9223474 50.8862831,87.4202164 50.8862831,87.4202164 C50.8862831,87.4202164 41.2120201,86.7902228 38.4787001,98.9452288 L38.4787001,98.9452288 L38.4787001,98.9452288 Z" id="Fill-6" stroke="#7B152B" fill="#FADB25" sketch:type="MSShapeGroup"></path>
                <path d="M63.2150073,74.2089217 C63.2150073,74.2089217 63.1517448,88.1543707 49.6365798,88.867474 C47.7214522,76.0230566 63.2150073,74.2089217 63.2150073,74.2089217 L63.2150073,74.2089217 L63.2150073,74.2089217 Z" id="Fill-8" stroke="#7B152B" fill="#FADB25" sketch:type="MSShapeGroup"></path>
                <path d="M66.6362799,64.1311668 C66.6362799,64.1311668 53.7602571,67.2378443 58.9512725,81.5381979 C72.2004337,75.2199643 66.6362799,64.1311668 66.6362799,64.1311668 L66.6362799,64.1311668 L66.6362799,64.1311668 Z" id="Fill-10" stroke="#7B152B" fill="#FADB25" sketch:type="MSShapeGroup"></path>
                <path d="M61.3767357,53.1372525 C61.3767357,53.1372525 54.0079067,62.4286679 63.4277679,69.6281239 C71.1825436,61.8416953 63.7889039,54.1442862 61.3767357,53.1372525 L61.3767357,53.1372525 L61.3767357,53.1372525 Z" id="Fill-12" stroke="#7B152B" fill="#FADB25" sketch:type="MSShapeGroup"></path>
                <path d="M51.3258811,43.9756572 C51.3258811,43.9756572 50.2785534,57.4599501 62.9949268,57.7180501 C64.1934436,52.3380984 60.5236731,44.3857496 51.3258811,43.9756572 L51.3258811,43.9756572 L51.3258811,43.9756572 Z" id="Fill-14" stroke="#7B152B" fill="#FADB25" sketch:type="MSShapeGroup"></path>
                <path d="M54.9695716,49.4705859 C40.1347658,48.3851224 43.306398,36.6522471 43.306398,36.6522471 C43.306398,36.6522471 54.9695714,37.5021492 54.9695716,49.4705859 L54.9695716,49.4705859 Z" id="Fill-16" stroke="#7B152B" fill="#FADB25" sketch:type="MSShapeGroup"></path>
                <path d="M40.8035444,33.1951258 C41.2424992,36.8766931 43.7705902,39.7300596 45.0477633,40.3110192 C45.0477633,40.3110192 47.7431845,36.7295869 48.330994,33.1951258 C48.9188034,29.6606646 46.5217467,26.3069861 45.6863497,25.0389086 C44.8509527,23.7708309 43.2863289,25.5376568 43.2863289,25.5376568 C43.2863289,25.5376568 40.3645895,29.5135586 40.8035444,33.1951258 L40.8035444,33.1951258 Z" id="Fill-18" stroke="#7B152B" fill="#FADB25" sketch:type="MSShapeGroup"></path>
                <path d="M52.2366545,14.6585524 C52.2366545,14.6585524 54.12249,20.6436079 49.2431272,24.9778727 C47.9241572,26.2069114 44.757902,27.5906498 42.6211157,28.4009454 C42.6211157,28.4009454 38.898261,17.5924744 52.2366545,14.6585524 L52.2366545,14.6585524 Z" id="Fill-20" stroke="#7B152B" fill="#FADB25" sketch:type="MSShapeGroup"></path>
                <path d="M64.1311447,6.41389292 C64.1311447,6.41389292 49.8028812,6.0960581 50.4073771,18.3231905 C50.4073771,18.3231905 56.4067137,18.3231905 60.4613984,14.6178342 C61.6561333,13.3030303 64.1396989,9.98070582 64.1311447,6.41389292 L64.1311447,6.41389292 L64.1311447,6.41389292 Z" id="Fill-22" stroke="#7B152B" fill="#FFDA1A" sketch:type="MSShapeGroup"></path>
            </g>
            <path d="M119.629914,175.838023 L119.629914,164.309385 C119.629914,161.909513 120.338486,160.068259 121.755652,158.785569 C123.090063,157.575289 124.895113,156.970158 127.170853,156.970158 C129.415561,156.970158 131.236127,157.595977 132.632604,158.847634 C134.008393,160.088947 134.696277,161.909513 134.696277,164.309385 L134.696277,166.652352 L128.846618,166.652352 L128.846618,163.797346 C128.846618,163.187033 128.784553,162.70086 128.660422,162.33881 C128.401815,161.769875 127.905297,161.485412 127.170853,161.485412 C126.467443,161.485412 125.976097,161.759531 125.696801,162.307777 C125.551981,162.752581 125.479573,163.249099 125.479573,163.797346 L125.479573,176.350062 C125.479573,177.115538 125.608874,177.710325 125.867481,178.134441 C126.115744,178.49649 126.550197,178.677513 127.170853,178.677513 C127.86392,178.677513 128.350094,178.377533 128.629389,177.777565 C128.774209,177.332761 128.846618,176.856932 128.846618,176.350062 L128.846618,172.626141 L134.696277,172.626141 L134.696277,175.838023 C134.696277,178.082731 134.018737,179.86192 132.663636,181.175643 C131.308536,182.510054 129.477627,183.17725 127.170853,183.17725 C124.874424,183.17725 123.048687,182.520399 121.693586,181.206675 C120.317798,179.892952 119.629914,178.103419 119.629914,175.838023 L119.629914,175.838023 Z M137.287505,164.278352 C137.287505,161.87848 137.996077,160.032054 139.413243,158.73902 C140.747655,157.539084 142.552704,156.939125 144.828444,156.939125 C147.073152,156.939125 148.893718,157.5546 150.290195,158.785569 C151.686672,160.026882 152.3849,161.857792 152.3849,164.278352 L152.3849,175.838023 C152.3849,178.062042 151.70736,179.841231 150.35226,181.175643 C148.99716,182.510054 147.155907,183.17725 144.828444,183.17725 C142.532015,183.17725 140.706278,182.520399 139.351178,181.206675 C137.975389,179.892952 137.287505,178.103419 137.287505,175.838023 L137.287505,164.278352 Z M140.111478,155.821949 L142.749255,151.508407 L147.233477,151.508407 L149.529894,155.821949 L146.224915,155.821949 L144.828444,153.4014 L143.230262,155.821949 L140.111478,155.821949 Z M143.137164,176.350062 C143.137164,177.115538 143.266465,177.710325 143.525072,178.134441 C143.773335,178.49649 144.207788,178.677513 144.828444,178.677513 C145.521511,178.677513 146.007685,178.377533 146.28698,177.777565 C146.4318,177.332761 146.504209,176.856932 146.504209,176.350062 L146.504209,163.766313 C146.504209,163.156001 146.442144,162.669827 146.318013,162.307777 C146.059406,161.738842 145.562888,161.454379 144.828444,161.454379 C144.125034,161.454379 143.633688,161.728498 143.354392,162.276745 C143.209573,162.721549 143.137164,163.218066 143.137164,163.766313 L143.137164,176.350062 Z M154.945096,182.773825 L154.945096,157.373582 L161.337827,157.373582 L166.039277,172.346847 L166.101342,157.373582 L171.764805,157.373582 L171.764805,182.773825 L165.403107,182.773825 L160.670624,167.071293 L160.608559,182.773825 L154.945096,182.773825 Z M174.356033,175.838023 L174.356033,164.309385 C174.356033,161.909513 175.064605,160.068259 176.481771,158.785569 C177.816183,157.575289 179.621232,156.970158 181.896973,156.970158 C184.141681,156.970158 185.889837,157.404611 187.141494,158.27353 C188.662103,159.328646 189.422396,160.968189 189.422396,163.192209 L189.422396,166.016182 L183.867547,166.016182 L183.867547,163.487019 C183.867547,162.152607 183.252072,161.485412 182.021103,161.485412 C181.400447,161.485412 180.903929,161.769875 180.531535,162.33881 C180.314305,162.804303 180.205692,163.290476 180.205692,163.797346 L180.205692,176.350062 C180.205692,177.115538 180.334993,177.710325 180.5936,178.134441 C180.841863,178.49649 181.276316,178.677513 181.896973,178.677513 C183.138286,178.677513 183.758933,178.041349 183.758933,176.769003 L183.758933,173.495056 L181.69526,173.495056 L181.69526,168.793606 L189.422396,168.793606 L189.422396,182.773825 L184.302005,182.773825 L184.302005,180.710153 C183.2262,182.354893 181.700442,183.17725 179.724686,183.17725 C177.842027,183.17725 176.424883,182.437646 175.473209,180.958414 C174.728421,179.727445 174.356033,178.020665 174.356033,175.838023 L174.356033,175.838023 Z M198.93391,162.276745 L198.93391,157.373582 L212.355541,157.373582 L212.355541,162.276745 L208.569555,162.276745 L208.569555,182.773825 L202.719896,182.773825 L202.719896,162.276745 L198.93391,162.276745 Z M217.708678,172.734756 L212.945162,157.373582 L218.981017,157.373582 L220.610233,165.954117 L222.379095,157.373582 L228.321852,157.373582 L223.558337,172.315815 L223.558337,182.773825 L217.708678,182.773825 L217.708678,172.734756 Z M243.62096,161.70264 L243.62096,178.444768 L244.536424,178.444768 C246.170819,178.444768 246.988005,177.725851 246.988005,176.287997 L246.988005,163.859411 C246.988005,162.421557 246.170819,161.70264 244.536424,161.70264 L243.62096,161.70264 Z M237.771301,182.773825 L237.771301,157.373582 L246.475966,157.373582 C248.834461,157.373582 250.520552,158.02009 251.534291,159.313124 C252.403211,160.419962 252.837664,162.043989 252.837664,164.185254 L252.837664,176.256964 C252.837664,178.377541 252.170468,180.037772 250.836056,181.237708 C249.687842,182.261791 248.234493,182.773825 246.475966,182.773825 L237.771301,182.773825 Z M255.615088,157.34255 L261.464747,157.34255 L261.464747,182.773825 L255.615088,182.773825 L255.615088,157.34255 Z M255.708186,185.20989 L261.169937,185.20989 L261.169937,188.964844 L255.708186,188.964844 L255.708186,185.20989 Z M264.257688,175.838023 L264.257688,164.309385 C264.257688,161.909513 264.96626,160.068259 266.383426,158.785569 C267.717837,157.575289 269.522886,156.970158 271.798627,156.970158 C274.043335,156.970158 275.8639,157.595977 277.260378,158.847634 C278.636166,160.088947 279.32405,161.909513 279.32405,164.309385 L279.32405,166.652352 L273.474392,166.652352 L273.474392,163.797346 C273.474392,163.187033 273.412327,162.70086 273.288195,162.33881 C273.029589,161.769875 272.533071,161.485412 271.798627,161.485412 C271.095216,161.485412 270.603871,161.759531 270.324575,162.307777 C270.179755,162.752581 270.107346,163.249099 270.107346,163.797346 L270.107346,176.350062 C270.107346,177.115538 270.236648,177.710325 270.495255,178.134441 C270.743517,178.49649 271.177971,178.677513 271.798627,178.677513 C272.491694,178.677513 272.977867,178.377533 273.257163,177.777565 C273.401983,177.332761 273.474392,176.856932 273.474392,176.350062 L273.474392,172.626141 L279.32405,172.626141 L279.32405,175.838023 C279.32405,178.082731 278.64651,179.86192 277.29141,181.175643 C275.93631,182.510054 274.105401,183.17725 271.798627,183.17725 C269.502198,183.17725 267.67646,182.520399 266.32136,181.206675 C264.945572,179.892952 264.257688,178.103419 264.257688,175.838023 L264.257688,175.838023 Z M281.915279,182.773825 L281.915279,157.373582 L287.764938,157.373582 L287.764938,166.885097 L291.131983,166.885097 L291.131983,157.373582 L296.981642,157.373582 L296.981642,182.773825 L291.131983,182.773825 L291.131983,171.958939 L287.764938,171.958939 L287.764938,182.773825 L281.915279,182.773825 Z M310.248109,182.773825 L306.369025,157.373582 L312.342815,157.373582 L313.940997,175.434598 L315.942605,157.373582 L321.80778,157.373582 L317.494239,182.773825 L310.248109,182.773825 Z M323.343897,157.34255 L329.193556,157.34255 L329.193556,175.900088 C329.193556,176.789696 329.276309,177.436204 329.441818,177.83963 C329.596982,178.263746 330.077984,178.4758 330.884837,178.4758 C331.433084,178.4758 331.857193,178.310294 332.157177,177.979277 C332.426128,177.658605 332.560601,176.965549 332.560601,175.900088 L332.560601,157.34255 L338.441293,157.34255 L338.441293,175.838023 C338.441293,178.062042 337.763753,179.841231 336.408653,181.175643 C335.053553,182.510054 333.212299,183.17725 330.884837,183.17725 C328.588408,183.17725 326.76267,182.520399 325.40757,181.206675 C324.031782,179.892952 323.343897,178.103419 323.343897,175.838023 L323.343897,157.34255 Z M328.216027,185.20989 L333.677778,185.20989 L333.677778,188.964844 L328.216027,188.964844 L328.216027,185.20989 Z M347.797644,182.773825 L352.499094,157.373582 L360.257262,157.373582 L365.020778,182.773825 L358.891825,182.773825 L358.348753,178.258571 L354.25244,178.258571 L353.647303,182.773825 L347.797644,182.773825 Z M354.857577,173.743318 L357.774648,173.743318 L356.409211,161.314732 L354.857577,173.743318 Z M365.982791,175.838023 L365.982791,164.309385 C365.982791,161.909513 366.691363,160.068259 368.108529,158.785569 C369.44294,157.575289 371.247989,156.970158 373.52373,156.970158 C375.768438,156.970158 377.516595,157.404611 378.768252,158.27353 C380.288861,159.328646 381.049153,160.968189 381.049153,163.192209 L381.049153,166.016182 L375.494305,166.016182 L375.494305,163.487019 C375.494305,162.152607 374.87883,161.485412 373.647861,161.485412 C373.027204,161.485412 372.530686,161.769875 372.158293,162.33881 C371.941063,162.804303 371.832449,163.290476 371.832449,163.797346 L371.832449,176.350062 C371.832449,177.115538 371.961751,177.710325 372.220358,178.134441 C372.468621,178.49649 372.903074,178.677513 373.52373,178.677513 C374.765043,178.677513 375.385691,178.041349 375.385691,176.769003 L375.385691,173.495056 L373.322018,173.495056 L373.322018,168.793606 L381.049153,168.793606 L381.049153,182.773825 L375.928762,182.773825 L375.928762,180.710153 C374.852958,182.354893 373.3272,183.17725 371.351443,183.17725 C369.468785,183.17725 368.05164,182.437646 367.099967,180.958414 C366.355179,179.727445 365.982791,178.020665 365.982791,175.838023 L365.982791,175.838023 Z M383.640382,182.773825 L383.640382,157.373582 L391.367517,157.373582 C393.974275,157.373582 395.856905,157.828724 397.015464,158.73902 C398.184367,159.659661 398.76881,161.252655 398.76881,163.518052 C398.76881,165.142103 398.577444,166.367881 398.194705,167.195423 C397.687836,168.219507 396.705144,168.953939 395.246601,169.398743 C396.301718,169.58494 397.124075,170.06077 397.713699,170.826246 C398.334356,171.540001 398.644679,172.429596 398.644679,173.495056 L398.644679,177.979277 L398.644679,179.779172 L398.644679,180.477408 C398.644679,180.715326 398.665367,180.958413 398.706745,181.206675 C398.706745,181.827332 398.887767,182.34971 399.249816,182.773825 L393.462223,182.773825 C393.276026,182.556596 393.105348,182.054906 392.950184,181.268741 C392.867429,180.596363 392.826053,179.965371 392.826053,179.375748 C392.805364,178.77578 392.79502,178.310294 392.79502,177.979277 L392.79502,173.898481 C392.79502,173.205414 392.624342,172.677864 392.282981,172.315815 C391.951964,171.974453 391.383038,171.803775 390.576184,171.803775 L389.490041,171.803775 L389.490041,182.773825 L383.640382,182.773825 Z M389.490041,161.70264 L389.490041,167.490234 L390.917544,167.490234 C391.765774,167.490234 392.350217,167.200598 392.67089,166.621319 L392.857086,165.861018 L392.919151,164.495581 C392.919151,163.50253 392.826054,162.814646 392.639857,162.431908 C392.339873,161.945727 391.672677,161.70264 390.638249,161.70264 L389.490041,161.70264 Z M401.484169,182.773825 L401.484169,157.373582 L407.333828,157.373582 L407.333828,182.773825 L401.484169,182.773825 Z M410.126768,182.773825 L410.126768,157.373582 L418.226296,157.373582 C420.429627,157.373582 422.04331,157.81838 423.067393,158.707987 C424.060444,159.618284 424.556961,161.16473 424.556961,163.347372 C424.556961,164.981768 424.375939,166.19203 424.01389,166.978195 C423.569086,168.033311 422.679491,168.814292 421.34508,169.321162 C422.720868,169.579768 423.706146,170.228862 424.300942,171.268462 C424.895738,172.308062 425.193131,173.629523 425.193131,175.232886 C425.193131,177.508627 424.717302,179.29816 423.765628,180.601538 C422.679479,182.049737 420.90029,182.773825 418.428008,182.773825 L410.126768,182.773825 Z M415.976427,171.555514 L415.976427,178.444768 L417.186701,178.444768 C418.055621,178.444768 418.640063,178.222369 418.940048,177.777565 C419.208999,177.291384 419.343472,176.360413 419.343472,174.984624 C419.343472,173.877787 419.240031,173.08129 419.033146,172.595109 C418.733162,171.902042 418.159063,171.555514 417.310832,171.555514 L415.976427,171.555514 Z M415.976427,161.70264 L415.976427,167.428168 L417.062571,167.428168 C417.890113,167.428168 418.45904,167.138533 418.769368,166.559254 C418.986598,166.093761 419.095211,165.395533 419.095211,164.464548 C419.095211,163.512875 418.968495,162.814647 418.715061,162.369843 C418.461626,161.925039 417.98321,161.70264 417.279799,161.70264 L415.976427,161.70264 Z M426.698216,182.773825 L431.399666,157.373582 L439.157834,157.373582 L443.921349,182.773825 L437.792397,182.773825 L437.249325,178.258571 L433.153012,178.258571 L432.547875,182.773825 L426.698216,182.773825 Z M433.758149,173.743318 L436.67522,173.743318 L435.309783,161.314732 L433.758149,173.743318 Z M445.44195,182.773825 L445.44195,157.373582 L451.834681,157.373582 L456.536131,172.346847 L456.598197,157.373582 L462.261659,157.373582 L462.261659,182.773825 L455.899961,182.773825 L451.167479,167.071293 L451.105413,182.773825 L445.44195,182.773825 Z M464.852888,182.773825 L464.852888,157.373582 L470.51635,157.373582 L470.51635,167.769528 L474.488533,157.373582 L480.679551,157.373582 L475.822938,167.893659 L480.710584,182.773825 L474.488533,182.773825 L471.881788,173.681252 L470.51635,175.775958 L470.51635,182.773825 L464.852888,182.773825 Z" id="CÔNG-TY-DỊCH-VỤ-AGRIBANK" fill="#FFFFFF" sketch:type="MSShapeGroup"></path>
            <path d="M92.1858243,139.691424 L92.1858243,126.991302 L95.3821896,126.991302 L97.7329146,134.477935 L97.7639473,126.991302 L100.595679,126.991302 L100.595679,139.691424 L97.4148297,139.691424 L95.0485884,131.840157 L95.0175557,139.691424 L92.1858243,139.691424 Z M101.891293,136.223522 L101.891293,130.459203 C101.891293,129.259267 102.245579,128.338641 102.954162,127.697295 C103.621368,127.092155 104.523892,126.78959 105.661763,126.78959 C106.784117,126.78959 107.658195,127.006816 108.284024,127.441276 C109.044328,127.968834 109.424474,128.788606 109.424474,129.900615 L109.424474,131.312602 L106.64705,131.312602 L106.64705,130.048021 C106.64705,129.380815 106.339312,129.047217 105.723828,129.047217 C105.4135,129.047217 105.165241,129.189448 104.979044,129.473916 C104.870429,129.706662 104.816122,129.949749 104.816122,130.203184 L104.816122,136.479542 C104.816122,136.86228 104.880773,137.159674 105.010077,137.371731 C105.134208,137.552756 105.351434,137.643267 105.661763,137.643267 C106.282419,137.643267 106.592743,137.325186 106.592743,136.689013 L106.592743,135.052039 L105.560906,135.052039 L105.560906,132.701314 L109.424474,132.701314 L109.424474,139.691424 L106.864279,139.691424 L106.864279,138.659587 C106.326376,139.481957 105.563497,139.893136 104.575619,139.893136 C103.63429,139.893136 102.925718,139.523334 102.449881,138.783718 C102.077487,138.168234 101.891293,137.314844 101.891293,136.223522 L101.891293,136.223522 Z M112.527742,126.975786 L116.406826,126.975786 L118.8041,139.691424 L115.724107,139.691424 L115.452571,137.433797 L113.404415,137.433797 L113.101846,139.691424 L110.177017,139.691424 L112.527742,126.975786 Z M112.132075,126.215485 L113.450964,124.058715 L115.693074,124.058715 L116.833525,126.215485 L115.181035,126.215485 L114.4828,125.005211 L113.691467,126.215485 L112.132075,126.215485 Z M113.706983,135.17617 L115.165519,135.17617 L114.4828,128.946361 L113.706983,135.17617 Z M119.548884,139.691424 L119.548884,126.991302 L122.745249,126.991302 L125.095974,134.477935 L125.127007,126.991302 L127.958738,126.991302 L127.958738,139.691424 L124.777889,139.691424 L122.411648,131.840157 L122.380615,139.691424 L119.548884,139.691424 Z M133.195502,139.691424 L133.195502,126.991302 L136.120331,126.991302 L136.120331,131.747059 L137.803854,131.747059 L137.803854,126.991302 L140.728683,126.991302 L140.728683,139.691424 L137.803854,139.691424 L137.803854,134.28398 L136.120331,134.28398 L136.120331,139.691424 L133.195502,139.691424 Z M143.831951,126.975786 L147.711035,126.975786 L150.108309,139.691424 L147.028316,139.691424 L146.75678,137.433797 L144.708624,137.433797 L144.406055,139.691424 L141.481226,139.691424 L143.831951,126.975786 Z M146.136127,124.058715 L146.834362,126.215485 L145.36031,126.215485 L143.630238,124.058715 L146.136127,124.058715 Z M145.011192,135.17617 L146.469728,135.17617 L145.787009,128.946361 L145.011192,135.17617 Z M150.853093,139.691424 L150.853093,126.991302 L154.049458,126.991302 L156.400183,134.477935 L156.431216,126.991302 L159.262948,126.991302 L159.262948,139.691424 L156.082099,139.691424 L153.715857,131.840157 L153.684825,139.691424 L150.853093,139.691424 Z M160.558562,136.223522 L160.558562,130.459203 C160.558562,129.259267 160.912848,128.338641 161.621431,127.697295 C162.288637,127.092155 163.191161,126.78959 164.329032,126.78959 C165.451385,126.78959 166.325464,127.006816 166.951292,127.441276 C167.711597,127.968834 168.091743,128.788606 168.091743,129.900615 L168.091743,131.312602 L165.314319,131.312602 L165.314319,130.048021 C165.314319,129.380815 165.006581,129.047217 164.391097,129.047217 C164.080769,129.047217 163.83251,129.189448 163.646313,129.473916 C163.537698,129.706662 163.483391,129.949749 163.483391,130.203184 L163.483391,136.479542 C163.483391,136.86228 163.548042,137.159674 163.677345,137.371731 C163.801477,137.552756 164.018703,137.643267 164.329032,137.643267 C164.949688,137.643267 165.260012,137.325186 165.260012,136.689013 L165.260012,135.052039 L164.228175,135.052039 L164.228175,132.701314 L168.091743,132.701314 L168.091743,139.691424 L165.531548,139.691424 L165.531548,138.659587 C164.993645,139.481957 164.230766,139.893136 163.242888,139.893136 C162.301559,139.893136 161.592987,139.523334 161.11715,138.783718 C160.744756,138.168234 160.558562,137.314844 160.558562,136.223522 L160.558562,136.223522 Z M173.328507,139.691424 L173.328507,126.991302 L176.524872,126.991302 L178.875597,134.477935 L178.90663,126.991302 L181.738361,126.991302 L181.738361,139.691424 L178.557512,139.691424 L176.191271,131.840157 L176.160238,139.691424 L173.328507,139.691424 Z M183.033975,130.443687 C183.033975,129.243751 183.388261,128.320538 184.096844,127.674021 C184.76405,127.074053 185.666575,126.774073 186.804445,126.774073 C187.926799,126.774073 188.837082,127.081811 189.53532,127.697295 C190.233559,128.317952 190.582673,129.233407 190.582673,130.443687 L190.582673,136.223522 C190.582673,137.335532 190.243903,138.225127 189.566353,138.892332 C188.888803,139.559538 187.968176,139.893136 186.804445,139.893136 C185.65623,139.893136 184.743362,139.56471 184.065812,138.907849 C183.377917,138.250987 183.033975,137.356221 183.033975,136.223522 L183.033975,130.443687 Z M184.445962,126.215485 L185.764851,124.058715 L188.006961,124.058715 L189.15517,126.215485 L187.50268,126.215485 L186.804445,125.005211 L186.005354,126.215485 L184.445962,126.215485 Z M185.958805,136.479542 C185.958805,136.86228 186.023456,137.159674 186.152759,137.371731 C186.27689,137.552756 186.494117,137.643267 186.804445,137.643267 C187.150978,137.643267 187.394065,137.493278 187.533713,137.193294 C187.606123,136.970892 187.642327,136.732977 187.642327,136.479542 L187.642327,130.187668 C187.642327,129.882511 187.611295,129.639425 187.549229,129.4584 C187.419926,129.173932 187.171667,129.0317 186.804445,129.0317 C186.45274,129.0317 186.207067,129.16876 186.067419,129.442883 C185.995009,129.665285 185.958805,129.913544 185.958805,130.187668 L185.958805,136.479542 Z M191.862771,139.691424 L191.862771,126.991302 L195.059136,126.991302 L197.409861,134.477935 L197.440894,126.991302 L200.272625,126.991302 L200.272625,139.691424 L197.091776,139.691424 L194.725535,131.840157 L194.694502,139.691424 L191.862771,139.691424 Z M201.568239,136.223522 L201.568239,130.459203 C201.568239,129.259267 201.922526,128.338641 202.631109,127.697295 C203.298314,127.092155 204.200839,126.78959 205.338709,126.78959 C206.461063,126.78959 207.335141,127.006816 207.96097,127.441276 C208.721274,127.968834 209.101421,128.788606 209.101421,129.900615 L209.101421,131.312602 L206.323997,131.312602 L206.323997,130.048021 C206.323997,129.380815 206.016259,129.047217 205.400775,129.047217 C205.090446,129.047217 204.842187,129.189448 204.65599,129.473916 C204.547376,129.706662 204.493069,129.949749 204.493069,130.203184 L204.493069,136.479542 C204.493069,136.86228 204.55772,137.159674 204.687023,137.371731 C204.811154,137.552756 205.028381,137.643267 205.338709,137.643267 C205.959366,137.643267 206.269689,137.325186 206.269689,136.689013 L206.269689,135.052039 L205.237853,135.052039 L205.237853,132.701314 L209.101421,132.701314 L209.101421,139.691424 L206.541225,139.691424 L206.541225,138.659587 C206.003323,139.481957 205.240444,139.893136 204.252566,139.893136 C203.311237,139.893136 202.602664,139.523334 202.126828,138.783718 C201.754434,138.168234 201.568239,137.314844 201.568239,136.223522 L201.568239,136.223522 Z M214.338184,139.691424 L214.338184,126.991302 L217.53455,126.991302 L219.885275,134.477935 L219.916308,126.991302 L222.748039,126.991302 L222.748039,139.691424 L219.56719,139.691424 L217.200949,131.840157 L217.169916,139.691424 L214.338184,139.691424 Z M224.043653,136.223522 L224.043653,130.459203 C224.043653,129.259267 224.397939,128.338641 225.106522,127.697295 C225.773728,127.092155 226.676252,126.78959 227.814123,126.78959 C228.936477,126.78959 229.810555,127.006816 230.436384,127.441276 C231.196688,127.968834 231.576835,128.788606 231.576835,129.900615 L231.576835,131.312602 L228.79941,131.312602 L228.79941,130.048021 C228.79941,129.380815 228.491673,129.047217 227.876188,129.047217 C227.56586,129.047217 227.317601,129.189448 227.131404,129.473916 C227.022789,129.706662 226.968483,129.949749 226.968483,130.203184 L226.968483,136.479542 C226.968483,136.86228 227.033133,137.159674 227.162437,137.371731 C227.286568,137.552756 227.503795,137.643267 227.814123,137.643267 C228.434779,137.643267 228.745103,137.325186 228.745103,136.689013 L228.745103,135.052039 L227.713267,135.052039 L227.713267,132.701314 L231.576835,132.701314 L231.576835,139.691424 L229.016639,139.691424 L229.016639,138.659587 C228.478737,139.481957 227.715858,139.893136 226.727979,139.893136 C225.78665,139.893136 225.078078,139.523334 224.602241,138.783718 C224.229847,138.168234 224.043653,137.314844 224.043653,136.223522 L224.043653,136.223522 Z M232.872449,139.691424 L232.872449,126.991302 L235.797278,126.991302 L235.797278,131.747059 L237.480801,131.747059 L237.480801,126.991302 L240.40563,126.991302 L240.40563,139.691424 L237.480801,139.691424 L237.480801,134.28398 L235.797278,134.28398 L235.797278,139.691424 L232.872449,139.691424 Z M241.794342,139.691424 L241.794342,126.991302 L244.719172,126.991302 L244.719172,139.691424 L241.794342,139.691424 Z M246.115642,126.975786 L252.616987,126.975786 L252.616987,129.427367 L249.040471,129.427367 L249.040471,131.964288 L252.174771,131.964288 L252.174771,134.415869 L249.040471,134.415869 L249.040471,137.239843 L252.756634,137.239843 L252.756634,139.691424 L246.115642,139.691424 L246.115642,126.975786 Z M247.085413,126.215485 L248.404302,124.058715 L250.646412,124.058715 L251.786863,126.215485 L250.134373,126.215485 L249.436138,125.005211 L248.644805,126.215485 L247.085413,126.215485 Z M247.962086,140.909456 L250.692961,140.909456 L250.692961,142.786933 L247.962086,142.786933 L247.962086,140.909456 Z M256.984836,129.248929 L256.984836,132.398746 L257.714104,132.398746 C258.138219,132.398746 258.43044,132.287546 258.590777,132.065144 C258.730424,131.811709 258.800247,131.387601 258.800247,130.792805 C258.800247,130.094566 258.676118,129.644597 258.427855,129.442883 C258.272691,129.31358 257.902889,129.248929 257.318437,129.248929 L256.984836,129.248929 Z M254.060006,139.691424 L254.060006,126.991302 L257.194306,126.991302 C258.875251,126.991302 260.028621,127.218873 260.654449,127.674021 C261.363032,128.206751 261.717318,129.267024 261.717318,130.85487 C261.717318,131.28933 261.712146,131.586723 261.701802,131.747059 C261.681114,131.91774 261.639737,132.160827 261.577671,132.476327 C261.515606,132.802172 261.378546,133.125426 261.166488,133.446098 C260.664791,134.252952 259.821745,134.656372 258.637326,134.656372 L256.984836,134.656372 L256.984836,139.691424 L254.060006,139.691424 Z M268.226422,139.691424 L266.28688,126.991302 L269.273774,126.991302 L270.072866,136.02181 L271.073669,126.991302 L274.006257,126.991302 L271.849486,139.691424 L268.226422,139.691424 Z M276.581969,126.975786 L280.461053,126.975786 L282.858327,139.691424 L279.778334,139.691424 L279.506798,137.433797 L277.458642,137.433797 L277.156073,139.691424 L274.231244,139.691424 L276.581969,126.975786 Z M278.886145,124.058715 L279.58438,126.215485 L278.110328,126.215485 L276.380257,124.058715 L278.886145,124.058715 Z M277.761211,135.17617 L279.219746,135.17617 L278.537027,128.946361 L277.761211,135.17617 Z M290.46909,129.248929 L290.46909,132.398746 L291.198358,132.398746 C291.622473,132.398746 291.914695,132.287546 292.075031,132.065144 C292.214679,131.811709 292.284502,131.387601 292.284502,130.792805 C292.284502,130.094566 292.160372,129.644597 291.91211,129.442883 C291.756945,129.31358 291.387143,129.248929 290.802691,129.248929 L290.46909,129.248929 Z M287.544261,139.691424 L287.544261,126.991302 L290.678561,126.991302 C292.359506,126.991302 293.512875,127.218873 294.138704,127.674021 C294.847287,128.206751 295.201573,129.267024 295.201573,130.85487 C295.201573,131.28933 295.196401,131.586723 295.186057,131.747059 C295.165368,131.91774 295.123992,132.160827 295.061926,132.476327 C294.99986,132.802172 294.862801,133.125426 294.650743,133.446098 C294.149046,134.252952 293.306,134.656372 292.12158,134.656372 L290.46909,134.656372 L290.46909,139.691424 L287.544261,139.691424 Z M296.373056,139.691424 L296.373056,126.991302 L299.297886,126.991302 L299.297886,131.747059 L300.981408,131.747059 L300.981408,126.991302 L303.906238,126.991302 L303.906238,139.691424 L300.981408,139.691424 L300.981408,134.28398 L299.297886,134.28398 L299.297886,139.691424 L296.373056,139.691424 Z M307.009505,126.975786 L310.888589,126.975786 L313.285863,139.691424 L310.20587,139.691424 L309.934335,137.433797 L307.886178,137.433797 L307.58361,139.691424 L304.65878,139.691424 L307.009505,126.975786 Z M308.661995,124.058715 L311.129092,124.058715 L309.44557,126.215485 L307.917211,126.215485 L308.661995,124.058715 Z M308.188747,135.17617 L309.647282,135.17617 L308.964563,128.946361 L308.188747,135.17617 Z M313.549641,129.442883 L313.549641,126.991302 L320.260457,126.991302 L320.260457,129.442883 L318.367463,129.442883 L318.367463,139.691424 L315.442634,139.691424 L315.442634,129.442883 L313.549641,129.442883 Z M324.542965,129.442883 L324.542965,126.991302 L331.253781,126.991302 L331.253781,129.442883 L329.360788,129.442883 L329.360788,139.691424 L326.435959,139.691424 L326.435959,129.442883 L324.542965,129.442883 Z M332.076147,139.691424 L332.076147,126.991302 L335.939715,126.991302 C337.243094,126.991302 338.184409,127.218873 338.763688,127.674021 C339.34814,128.134341 339.640361,128.930839 339.640361,130.063537 C339.640361,130.875563 339.544678,131.488452 339.353309,131.902223 C339.099874,132.414264 338.608528,132.781481 337.879257,133.003883 C338.406815,133.096981 338.817994,133.334896 339.112806,133.717634 C339.423134,134.074512 339.578296,134.519309 339.578296,135.052039 L339.578296,137.29415 L339.578296,138.194097 L339.578296,138.543215 C339.578296,138.662174 339.58864,138.783717 339.609328,138.907849 C339.609328,139.218177 339.699839,139.479366 339.880864,139.691424 L336.987067,139.691424 C336.893969,139.582809 336.80863,139.331964 336.731048,138.938881 C336.689671,138.602692 336.668983,138.287197 336.668983,137.992385 C336.658638,137.692401 336.653466,137.459658 336.653466,137.29415 L336.653466,135.253751 C336.653466,134.907218 336.568127,134.643443 336.397447,134.462418 C336.231938,134.291738 335.947475,134.206399 335.544048,134.206399 L335.000976,134.206399 L335.000976,139.691424 L332.076147,139.691424 Z M335.000976,129.155831 L335.000976,132.049628 L335.714728,132.049628 C336.138843,132.049628 336.431065,131.90481 336.591401,131.615171 L336.684499,131.23502 L336.715532,130.552301 C336.715532,130.055776 336.668983,129.711834 336.575885,129.520465 C336.425893,129.277375 336.092295,129.155831 335.575081,129.155831 L335.000976,129.155831 Z M340.99804,139.691424 L340.99804,126.991302 L343.92287,126.991302 L343.92287,139.691424 L340.99804,139.691424 Z M345.31934,126.975786 L351.820685,126.975786 L351.820685,129.427367 L348.24417,129.427367 L348.24417,131.964288 L351.37847,131.964288 L351.37847,134.415869 L348.24417,134.415869 L348.24417,137.239843 L351.960332,137.239843 L351.960332,139.691424 L345.31934,139.691424 L345.31934,126.975786 Z M346.289111,126.215485 L347.608,124.058715 L349.850111,124.058715 L350.990561,126.215485 L349.338071,126.215485 L348.639836,125.005211 L347.848503,126.215485 L346.289111,126.215485 Z M350.726784,124.88108 L350.726784,124.562995 C350.726784,124.340594 350.96987,123.970791 351.456051,123.453577 C351.559494,123.344963 351.64354,123.227298 351.708192,123.100581 C351.772844,122.973863 351.805169,122.845855 351.805169,122.716551 C351.805169,122.551043 351.779309,122.434672 351.727587,122.367434 C351.691382,122.305368 351.590527,122.269164 351.425019,122.25882 C351.073313,122.25882 350.897463,122.439842 350.897463,122.801891 L350.897463,123.182042 L349.819078,123.182042 L349.819078,122.716551 C349.819078,122.370018 349.950965,122.059695 350.214744,121.785571 C350.519901,121.475243 350.938837,121.320081 351.471568,121.320081 C351.926716,121.320081 352.296518,121.43128 352.580986,121.653682 C352.865453,121.876084 353.007685,122.209682 353.007685,122.654486 C353.007685,123.057913 352.790459,123.440645 352.355999,123.802695 C351.911195,124.159573 351.688796,124.519031 351.688796,124.88108 L350.726784,124.88108 Z M353.263705,139.691424 L353.263705,126.991302 L356.46007,126.991302 L358.810795,134.477935 L358.841828,126.991302 L361.673559,126.991302 L361.673559,139.691424 L358.49271,139.691424 L356.126469,131.840157 L356.095436,139.691424 L353.263705,139.691424 Z M366.910323,139.691424 L366.910323,126.991302 L370.106688,126.991302 L372.457413,134.477935 L372.488446,126.991302 L375.320177,126.991302 L375.320177,139.691424 L372.139328,139.691424 L369.773087,131.840157 L369.742054,139.691424 L366.910323,139.691424 Z M376.615791,130.443687 C376.615791,129.243751 376.970077,128.320538 377.67866,127.674021 C378.345866,127.074053 379.248391,126.774073 380.386261,126.774073 C381.508615,126.774073 382.418898,127.081811 383.117136,127.697295 C383.815375,128.317952 384.164489,129.233407 384.164489,130.443687 L384.164489,136.223522 C384.164489,137.335532 383.825719,138.225127 383.148169,138.892332 C382.470619,139.559538 381.549992,139.893136 380.386261,139.893136 C379.238046,139.893136 378.325178,139.56471 377.647628,138.907849 C376.959733,138.250987 376.615791,137.356221 376.615791,136.223522 L376.615791,130.443687 Z M378.027778,126.215485 L379.346666,124.058715 L381.588777,124.058715 L382.736986,126.215485 L381.084496,126.215485 L380.386261,125.005211 L379.58717,126.215485 L378.027778,126.215485 Z M379.540621,136.479542 C379.540621,136.86228 379.605271,137.159674 379.734575,137.371731 C379.858706,137.552756 380.075933,137.643267 380.386261,137.643267 C380.732794,137.643267 380.975881,137.493278 381.115529,137.193294 C381.187939,136.970892 381.224143,136.732977 381.224143,136.479542 L381.224143,130.187668 C381.224143,129.882511 381.193111,129.639425 381.131045,129.4584 C381.001742,129.173932 380.753483,129.0317 380.386261,129.0317 C380.034556,129.0317 379.788883,129.16876 379.649235,129.442883 C379.576825,129.665285 379.540621,129.913544 379.540621,130.187668 L379.540621,136.479542 Z M385.444587,139.691424 L385.444587,126.991302 L388.640952,126.991302 L390.991677,134.477935 L391.02271,126.991302 L393.854441,126.991302 L393.854441,139.691424 L390.673592,139.691424 L388.307351,131.840157 L388.276318,139.691424 L385.444587,139.691424 Z M395.150055,136.223522 L395.150055,130.459203 C395.150055,129.259267 395.504342,128.338641 396.212924,127.697295 C396.88013,127.092155 397.782655,126.78959 398.920525,126.78959 C400.042879,126.78959 400.916957,127.006816 401.542786,127.441276 C402.30309,127.968834 402.683237,128.788606 402.683237,129.900615 L402.683237,131.312602 L399.905813,131.312602 L399.905813,130.048021 C399.905813,129.380815 399.598075,129.047217 398.982591,129.047217 C398.672262,129.047217 398.424003,129.189448 398.237806,129.473916 C398.129191,129.706662 398.074885,129.949749 398.074885,130.203184 L398.074885,136.479542 C398.074885,136.86228 398.139536,137.159674 398.268839,137.371731 C398.39297,137.552756 398.610197,137.643267 398.920525,137.643267 C399.541182,137.643267 399.851505,137.325186 399.851505,136.689013 L399.851505,135.052039 L398.819669,135.052039 L398.819669,132.701314 L402.683237,132.701314 L402.683237,139.691424 L400.123041,139.691424 L400.123041,138.659587 C399.585139,139.481957 398.82226,139.893136 397.834382,139.893136 C396.893052,139.893136 396.18448,139.523334 395.708643,138.783718 C395.33625,138.168234 395.150055,137.314844 395.150055,136.223522 L395.150055,136.223522 Z M407.438994,129.442883 L407.438994,126.991302 L414.14981,126.991302 L414.14981,129.442883 L412.256817,129.442883 L412.256817,139.691424 L409.331987,139.691424 L409.331987,129.442883 L407.438994,129.442883 Z M414.972175,139.691424 L414.972175,126.991302 L417.897005,126.991302 L417.897005,131.747059 L419.580527,131.747059 L419.580527,126.991302 L422.505357,126.991302 L422.505357,139.691424 L419.580527,139.691424 L419.580527,134.28398 L417.897005,134.28398 L417.897005,139.691424 L414.972175,139.691424 Z M423.800971,130.443687 C423.800971,129.243751 424.155257,128.320538 424.86384,127.674021 C425.531046,127.074053 426.43357,126.774073 427.571441,126.774073 C428.693795,126.774073 429.604077,127.081811 430.302316,127.697295 C431.000555,128.317952 431.349669,129.233407 431.349669,130.443687 L431.349669,136.223522 C431.349669,137.335532 431.010899,138.225127 430.333349,138.892332 C429.655799,139.559538 428.735172,139.893136 427.571441,139.893136 C426.423226,139.893136 425.510357,139.56471 424.832807,138.907849 C424.144913,138.250987 423.800971,137.356221 423.800971,136.223522 L423.800971,130.443687 Z M425.212958,126.215485 L426.531846,124.058715 L428.773957,124.058715 L429.922166,126.215485 L428.269676,126.215485 L427.571441,125.005211 L426.772349,126.215485 L425.212958,126.215485 Z M426.7258,136.479542 C426.7258,136.86228 426.790451,137.159674 426.919755,137.371731 C427.043886,137.552756 427.261112,137.643267 427.571441,137.643267 C427.917974,137.643267 428.161061,137.493278 428.300709,137.193294 C428.373119,136.970892 428.409323,136.732977 428.409323,136.479542 L428.409323,130.187668 C428.409323,129.882511 428.378291,129.639425 428.316225,129.4584 C428.186921,129.173932 427.938663,129.0317 427.571441,129.0317 C427.219735,129.0317 426.974063,129.16876 426.834415,129.442883 C426.762005,129.665285 426.7258,129.913544 426.7258,130.187668 L426.7258,136.479542 Z M432.629767,139.691424 L432.629767,126.991302 L435.826132,126.991302 L438.176857,134.477935 L438.20789,126.991302 L441.039621,126.991302 L441.039621,139.691424 L437.858772,139.691424 L435.492531,131.840157 L435.461498,139.691424 L432.629767,139.691424 Z M447.672855,139.691424 L445.733313,126.991302 L448.720208,126.991302 L449.519299,136.02181 L450.520103,126.991302 L453.45269,126.991302 L451.295919,139.691424 L447.672855,139.691424 Z M454.313847,139.691424 L454.313847,126.991302 L457.238676,126.991302 L457.238676,139.691424 L454.313847,139.691424 Z M458.635147,126.975786 L465.136492,126.975786 L465.136492,129.427367 L461.559976,129.427367 L461.559976,131.964288 L464.694276,131.964288 L464.694276,134.415869 L461.559976,134.415869 L461.559976,137.239843 L465.276139,137.239843 L465.276139,139.691424 L458.635147,139.691424 L458.635147,126.975786 Z M459.604918,126.215485 L460.923806,124.058715 L463.165917,124.058715 L464.306368,126.215485 L462.653878,126.215485 L461.955643,125.005211 L461.16431,126.215485 L459.604918,126.215485 Z M460.481591,140.909456 L463.212466,140.909456 L463.212466,142.786933 L460.481591,142.786933 L460.481591,140.909456 Z M466.098505,129.442883 L466.098505,126.991302 L472.80932,126.991302 L472.80932,129.442883 L470.916327,129.442883 L470.916327,139.691424 L467.991498,139.691424 L467.991498,129.442883 L466.098505,129.442883 Z M477.572836,139.691424 L477.572836,126.991302 L480.769201,126.991302 L483.119926,134.477935 L483.150959,126.991302 L485.98269,126.991302 L485.98269,139.691424 L482.801841,139.691424 L480.4356,131.840157 L480.404567,139.691424 L477.572836,139.691424 Z M486.735232,139.691424 L489.085957,126.991302 L492.965042,126.991302 L495.346799,139.691424 L492.282323,139.691424 L492.010787,137.433797 L489.96263,137.433797 L489.660062,139.691424 L486.735232,139.691424 Z M490.265199,135.17617 L491.723735,135.17617 L491.041016,128.961877 L490.265199,135.17617 Z M496.184681,139.691424 L496.184681,126.991302 L500.793033,126.991302 L501.623157,133.283177 L502.476556,126.991302 L507.084908,126.991302 L507.084908,139.691424 L504.260935,139.691424 L504.260935,129.823034 L502.592928,139.691424 L500.684419,139.691424 L499.047446,129.823034 L499.016413,139.691424 L496.184681,139.691424 Z" id="NGÂN-HÀNG-NÔNG-NGHIỆP-VÀ-PHÁT-TRIỂN-NÔNG-THÔN-VIỆT-NAM" fill="#FFFFFF" sketch:type="MSShapeGroup"></path>
        </g>
    </g>
</svg>