<?xml version="1.0" encoding="UTF-8" standalone="no"?>
<svg width="600px" height="219px" viewBox="0 0 600 219" version="1.1" xmlns="http://www.w3.org/2000/svg" xmlns:xlink="http://www.w3.org/1999/xlink" xmlns:sketch="http://www.bohemiancoding.com/sketch/ns">
    <!-- Generator: Sketch 3.3.3 (12081) - http://www.bohemiancoding.com/sketch -->
    <title>Artboard 1</title>
    <desc>Created with Sketch.</desc>
    <defs></defs>
    <g id="Page-1" stroke="none" stroke-width="1" fill="none" fill-rule="evenodd" sketch:type="MSPage">
        <g id="Artboard-1" sketch:type="MSArtboardGroup">
            <g id="logo" sketch:type="MSLayerGroup" transform="translate(253.289784, 0.000000)">
                <path d="M83.5521645,93.4204318 L9.86826727,93.4204318 C4.41817855,93.4204318 0,89.0023717 0,83.5524291 L0,9.87050728 C0,4.4180601 4.41817855,0 9.86826727,0 L83.5521645,0 C89.0022533,0 93.4204318,4.4180601 93.4204318,9.87050728 L93.4204318,83.5524291 C93.4204318,89.0023717 89.0022533,93.4204318 83.5521645,93.4204318 L83.5521645,93.4204318 L83.5521645,93.4204318 Z" id="Fill-1" fill="#FFFFFF" sketch:type="MSShapeGroup"></path>
                <path d="M31.9596214,89.3180208 L82.3035288,89.3230444 C85.6974719,89.3230444 88.4910061,86.5349062 88.4910061,83.1414154 L88.503567,32.7790988 L31.9596214,89.3180208" id="Fill-3" fill="#133729" sketch:type="MSShapeGroup"></path>
                <path d="M82.3326319,4.91686483 L63.8773821,4.91686483 L4.09738736,64.7630605 L4.09738736,83.1405138 C4.09738736,86.5357765 6.80248906,89.3180404 10.2583128,89.3180404 L28.4132737,89.3230444 L88.4960597,29.2391554 L88.503567,11.0818812 C88.503567,7.62907169 85.7133834,4.91686483 82.3326319,4.91686483 L82.3326319,4.91686483 Z" id="Fill-4" fill="#9C213B" sketch:type="MSShapeGroup"></path>
                <path d="M10.2403205,4.91686483 C6.8029661,4.91686483 4.10485445,7.60666835 4.10485445,11.0454366 L4.09738736,60.6413329 L59.8218555,4.93179435 L10.2403205,4.91686483" id="Fill-5" fill="#133729" sketch:type="MSShapeGroup"></path>
                <path d="M34.4180538,88.503567 C40.9726548,87.7571627 44.7021228,87.841195 47.5296934,77.6831776 C47.4516914,75.9605162 45.5162681,78.1947858 45.5162681,78.1947858 C45.5162681,78.1947858 36.8629273,77.6312753 34.4180538,88.503567 L34.4180538,88.503567 L34.4180538,88.503567 Z" id="Fill-6" stroke="#7B152B" fill="#FADB25" sketch:type="MSShapeGroup"></path>
                <path d="M56.5439455,66.3776752 C56.5439455,66.3776752 56.4873591,78.851465 44.3984457,79.4893147 C42.6854209,68.000365 56.5439455,66.3776752 56.5439455,66.3776752 L56.5439455,66.3776752 L56.5439455,66.3776752 Z" id="Fill-8" stroke="#7B152B" fill="#FADB25" sketch:type="MSShapeGroup"></path>
                <path d="M59.6041722,57.363423 C59.6041722,57.363423 48.0869524,60.1422537 52.7301615,72.933495 C64.5811424,67.2820229 59.6041722,57.363423 59.6041722,57.363423 L59.6041722,57.363423 L59.6041722,57.363423 Z" id="Fill-10" stroke="#7B152B" fill="#FADB25" sketch:type="MSShapeGroup"></path>
                <path d="M54.8996663,47.5296934 C54.8996663,47.5296934 48.3084677,55.8405883 56.7342535,62.2802878 C63.67067,55.3155587 57.057279,48.430455 54.8996663,47.5296934 L54.8996663,47.5296934 L54.8996663,47.5296934 Z" id="Fill-12" stroke="#7B152B" fill="#FADB25" sketch:type="MSShapeGroup"></path>
                <path d="M45.9094755,39.3349186 C45.9094755,39.3349186 44.972672,51.3962179 56.3470901,51.6270807 C57.4191277,46.8148737 54.1366271,39.701734 45.9094755,39.3349186 L45.9094755,39.3349186 L45.9094755,39.3349186 Z" id="Fill-14" stroke="#7B152B" fill="#FADB25" sketch:type="MSShapeGroup"></path>
                <path d="M49.1686483,44.2499691 C35.8993554,43.2790541 38.7362861,32.7843459 38.7362861,32.7843459 C38.7362861,32.7843459 49.1686481,33.544558 49.1686483,44.2499691 L49.1686483,44.2499691 Z" id="Fill-16" stroke="#7B152B" fill="#FADB25" sketch:type="MSShapeGroup"></path>
                <path d="M36.4975579,29.6920536 C36.89019,32.9851062 39.1514923,35.5373577 40.2938856,36.0570088 C40.2938856,36.0570088 42.7048598,32.8535241 43.230638,29.6920536 C43.756416,26.5305831 41.61232,23.5308173 40.8650822,22.3965597 C40.1178444,21.2623019 38.7183349,22.8426752 38.7183349,22.8426752 C38.7183349,22.8426752 36.1049259,26.3990011 36.4975579,29.6920536 L36.4975579,29.6920536 Z" id="Fill-18" stroke="#7B152B" fill="#FADB25" sketch:type="MSShapeGroup"></path>
                <path d="M46.7241352,13.1116396 C46.7241352,13.1116396 48.410959,18.4650938 44.046514,22.3419649 C42.8667345,23.4413035 40.0346134,24.6790164 38.1233215,25.4038017 C38.1233215,25.4038017 34.7933386,15.7359456 46.7241352,13.1116396 L46.7241352,13.1116396 Z" id="Fill-20" stroke="#7B152B" fill="#FADB25" sketch:type="MSShapeGroup"></path>
                <path d="M57.3634033,5.73703662 C57.3634033,5.73703662 44.5471973,5.45274282 45.087901,16.3895494 C45.087901,16.3895494 50.4541293,16.3895494 54.0809242,13.0752183 C55.1495791,11.8991653 57.3710547,8.92744477 57.3634033,5.73703662 L57.3634033,5.73703662 L57.3634033,5.73703662 Z" id="Fill-22" stroke="#7B152B" fill="#FFDA1A" sketch:type="MSShapeGroup"></path>
            </g>
            <path d="M138.664318,157.281886 L138.664318,146.969862 C138.664318,144.823248 139.298115,143.176301 140.565727,142.028973 C141.759319,140.946413 143.373882,140.405141 145.409464,140.405141 C147.417289,140.405141 149.04573,140.964918 150.294838,142.084489 C151.52544,143.194806 152.140732,144.823248 152.140732,146.969862 L152.140732,149.065576 L146.908385,149.065576 L146.908385,146.511858 C146.908385,145.965952 146.85287,145.531084 146.741839,145.207242 C146.510522,144.698346 146.066402,144.443902 145.409464,144.443902 C144.780284,144.443902 144.34079,144.689093 144.090968,145.179484 C143.961431,145.577348 143.896664,146.021468 143.896664,146.511858 L143.896664,157.73989 C143.896664,158.424586 144.01232,158.956605 144.243636,159.335964 C144.4657,159.659807 144.854305,159.821725 145.409464,159.821725 C146.029391,159.821725 146.464259,159.553403 146.714081,159.016749 C146.843618,158.618885 146.908385,158.19327 146.908385,157.73989 L146.908385,154.408954 L152.140732,154.408954 L152.140732,157.281886 C152.140732,159.289711 151.534692,160.881142 150.322595,162.056229 C149.110499,163.24982 147.472804,163.846607 145.409464,163.846607 C143.355376,163.846607 141.722308,163.259073 140.510212,162.083986 C139.279609,160.9089 138.664318,159.308216 138.664318,157.281886 L138.664318,157.281886 Z M154.458508,146.942104 C154.458508,144.79549 155.092305,143.143917 156.359918,141.987336 C157.553509,140.914029 159.168072,140.377384 161.203655,140.377384 C163.211479,140.377384 164.839921,140.927908 166.089028,142.028973 C167.338136,143.139291 167.96268,144.776985 167.96268,146.942104 L167.96268,157.281886 C167.96268,159.271206 167.356641,160.862637 166.144544,162.056229 C164.932447,163.24982 163.2855,163.846607 161.203655,163.846607 C159.149567,163.846607 157.516499,163.259073 156.304402,162.083986 C155.0738,160.9089 154.458508,159.308216 154.458508,157.281886 L154.458508,146.942104 Z M156.984468,139.378103 L159.343882,135.519768 L163.354884,135.519768 L165.408962,139.378103 L162.452756,139.378103 L161.203655,137.212994 L159.774128,139.378103 L156.984468,139.378103 Z M159.690854,157.73989 C159.690854,158.424586 159.806511,158.956605 160.037827,159.335964 C160.25989,159.659807 160.648496,159.821725 161.203655,159.821725 C161.823582,159.821725 162.25845,159.553403 162.508271,159.016749 C162.637808,158.618885 162.702576,158.19327 162.702576,157.73989 L162.702576,146.484101 C162.702576,145.938194 162.647061,145.503326 162.536029,145.179484 C162.304713,144.670588 161.860593,144.416144 161.203655,144.416144 C160.574475,144.416144 160.13498,144.661336 159.885159,145.151726 C159.755622,145.54959 159.690854,145.99371 159.690854,146.484101 L159.690854,157.73989 Z M170.252699,163.485756 L170.252699,140.765993 L175.970806,140.765993 L180.176114,154.159133 L180.231629,140.765993 L185.297429,140.765993 L185.297429,163.485756 L179.607079,163.485756 L175.374014,149.440307 L175.318498,163.485756 L170.252699,163.485756 Z M187.615205,157.281886 L187.615205,146.969862 C187.615205,144.823248 188.249002,143.176301 189.516615,142.028973 C190.710206,140.946413 192.324769,140.405141 194.360352,140.405141 C196.368176,140.405141 197.93185,140.793747 199.05142,141.570969 C200.41156,142.514739 201.091619,143.981262 201.091619,145.970581 L201.091619,148.496541 L196.122972,148.496541 L196.122972,146.23428 C196.122972,145.040689 195.572448,144.443902 194.471383,144.443902 C193.916224,144.443902 193.472103,144.698346 193.139008,145.207242 C192.944703,145.623611 192.847551,146.058479 192.847551,146.511858 L192.847551,157.73989 C192.847551,158.424586 192.963208,158.956605 193.194524,159.335964 C193.416587,159.659807 193.805193,159.821725 194.360352,159.821725 C195.470669,159.821725 196.02582,159.252696 196.02582,158.11462 L196.02582,155.186172 L194.179926,155.186172 L194.179926,150.980865 L201.091619,150.980865 L201.091619,163.485756 L196.511581,163.485756 L196.511581,161.639862 C195.549306,163.111033 194.184561,163.846607 192.417305,163.846607 C190.733323,163.846607 189.46573,163.185053 188.614486,161.861924 C187.948295,160.760859 187.615205,159.234195 187.615205,157.281886 L187.615205,157.281886 Z M209.599386,145.151726 L209.599386,140.765993 L221.604636,140.765993 L221.604636,145.151726 L218.218184,145.151726 L218.218184,163.485756 L212.985838,163.485756 L212.985838,145.151726 L209.599386,145.151726 Z M226.392857,154.506106 L222.132035,140.765993 L227.530927,140.765993 L228.988212,148.441026 L230.570407,140.765993 L235.886026,140.765993 L231.625204,154.131376 L231.625204,163.485756 L226.392857,163.485756 L226.392857,154.506106 Z M249.570624,144.638207 L249.570624,159.613542 L250.389479,159.613542 C251.851397,159.613542 252.582346,158.970493 252.582346,157.684375 L252.582346,146.567374 C252.582346,145.281256 251.851397,144.638207 250.389479,144.638207 L249.570624,144.638207 Z M244.338278,163.485756 L244.338278,140.765993 L252.124342,140.765993 C254.233946,140.765993 255.742104,141.344275 256.648864,142.500856 C257.426086,143.490889 257.814692,144.943533 257.814692,146.858831 L257.814692,157.656617 C257.814692,159.553409 257.217905,161.038437 256.024313,162.111744 C254.997269,163.027756 253.697292,163.485756 252.124342,163.485756 L244.338278,163.485756 Z M260.299015,140.738235 L265.531361,140.738235 L265.531361,163.485756 L260.299015,163.485756 L260.299015,140.738235 Z M260.382289,165.664743 L265.267662,165.664743 L265.267662,169.023437 L260.382289,169.023437 L260.382289,165.664743 Z M268.029564,157.281886 L268.029564,146.969862 C268.029564,144.823248 268.66336,143.176301 269.930973,142.028973 C271.124565,140.946413 272.739128,140.405141 274.77471,140.405141 C276.782535,140.405141 278.410976,140.964918 279.660084,142.084489 C280.890686,143.194806 281.505978,144.823248 281.505978,146.969862 L281.505978,149.065576 L276.273631,149.065576 L276.273631,146.511858 C276.273631,145.965952 276.218116,145.531084 276.107085,145.207242 C275.875768,144.698346 275.431648,144.443902 274.77471,144.443902 C274.14553,144.443902 273.706036,144.689093 273.456214,145.179484 C273.326677,145.577348 273.26191,146.021468 273.26191,146.511858 L273.26191,157.73989 C273.26191,158.424586 273.377566,158.956605 273.608882,159.335964 C273.830946,159.659807 274.219551,159.821725 274.77471,159.821725 C275.394637,159.821725 275.829505,159.553403 276.079327,159.016749 C276.208864,158.618885 276.273631,158.19327 276.273631,157.73989 L276.273631,154.408954 L281.505978,154.408954 L281.505978,157.281886 C281.505978,159.289711 280.899938,160.881142 279.687841,162.056229 C278.475744,163.24982 276.83805,163.846607 274.77471,163.846607 C272.720622,163.846607 271.087554,163.259073 269.875458,162.083986 C268.644855,160.9089 268.029564,159.308216 268.029564,157.281886 L268.029564,157.281886 Z M283.823754,163.485756 L283.823754,140.765993 L289.0561,140.765993 L289.0561,149.27376 L292.067822,149.27376 L292.067822,140.765993 L297.300168,140.765993 L297.300168,163.485756 L292.067822,163.485756 L292.067822,153.812161 L289.0561,153.812161 L289.0561,163.485756 L283.823754,163.485756 Z M309.166629,163.485756 L305.696904,140.765993 L311.040281,140.765993 L312.469808,156.921035 L314.260186,140.765993 L319.506411,140.765993 L315.648077,163.485756 L309.166629,163.485756 Z M320.880423,140.738235 L326.112769,140.738235 L326.112769,157.337402 C326.112769,158.13313 326.186789,158.711411 326.334831,159.072265 C326.473621,159.451623 326.903862,159.6413 327.625569,159.6413 C328.115959,159.6413 328.495312,159.49326 328.763639,159.197175 C329.004208,158.910343 329.12449,158.290425 329.12449,157.337402 L329.12449,140.738235 L334.384594,140.738235 L334.384594,157.281886 C334.384594,159.271206 333.778555,160.862637 332.566458,162.056229 C331.354361,163.24982 329.707415,163.846607 327.625569,163.846607 C325.571481,163.846607 323.938413,163.259073 322.726317,162.083986 C321.495714,160.9089 320.880423,159.308216 320.880423,157.281886 L320.880423,140.738235 Z M325.238398,165.664743 L330.123771,165.664743 L330.123771,169.023437 L325.238398,169.023437 L325.238398,165.664743 Z M342.753572,163.485756 L346.95888,140.765993 L353.898331,140.765993 L358.159153,163.485756 L352.676987,163.485756 L352.191226,159.446995 L348.527195,159.446995 L347.985918,163.485756 L342.753572,163.485756 Z M349.068473,155.408235 L351.677706,155.408235 L350.456363,144.291234 L349.068473,155.408235 Z M359.019645,157.281886 L359.019645,146.969862 C359.019645,144.823248 359.653442,143.176301 360.921055,142.028973 C362.114647,140.946413 363.729209,140.405141 365.764792,140.405141 C367.772616,140.405141 369.33629,140.793747 370.455861,141.570969 C371.816,142.514739 372.496059,143.981262 372.496059,145.970581 L372.496059,148.496541 L367.527412,148.496541 L367.527412,146.23428 C367.527412,145.040689 366.976888,144.443902 365.875823,144.443902 C365.320664,144.443902 364.876544,144.698346 364.543448,145.207242 C364.349143,145.623611 364.251991,146.058479 364.251991,146.511858 L364.251991,157.73989 C364.251991,158.424586 364.367648,158.956605 364.598964,159.335964 C364.821028,159.659807 365.209633,159.821725 365.764792,159.821725 C366.87511,159.821725 367.43026,159.252696 367.43026,158.11462 L367.43026,155.186172 L365.584366,155.186172 L365.584366,150.980865 L372.496059,150.980865 L372.496059,163.485756 L367.916022,163.485756 L367.916022,161.639862 C366.953746,163.111033 365.589001,163.846607 363.821746,163.846607 C362.137764,163.846607 360.87017,163.185053 360.018926,161.861924 C359.352736,160.760859 359.019645,159.234195 359.019645,157.281886 L359.019645,157.281886 Z M374.813836,163.485756 L374.813836,140.765993 L381.725529,140.765993 C384.057196,140.765993 385.741153,141.173103 386.77745,141.987336 C387.822999,142.810822 388.345765,144.235708 388.345765,146.262038 C388.345765,147.714704 388.174594,148.811126 387.832246,149.551338 C387.378866,150.46735 386.499878,151.124278 385.195255,151.522142 C386.139025,151.68869 386.874599,152.114305 387.402,152.799001 C387.957159,153.437434 388.234734,154.233149 388.234734,155.186172 L388.234734,159.197175 L388.234734,160.807127 L388.234734,161.431678 C388.234734,161.644489 388.253239,161.861923 388.29025,162.083986 C388.29025,162.639145 388.452169,163.106397 388.776011,163.485756 L383.599181,163.485756 C383.432633,163.29145 383.279967,162.842703 383.141177,162.139502 C383.067156,161.53808 383.030146,160.973677 383.030146,160.446276 C383.011641,159.909622 383.002388,159.49326 383.002388,159.197175 L383.002388,155.547024 C383.002388,154.927096 382.849722,154.455218 382.544384,154.131376 C382.2483,153.826038 381.739412,153.673372 381.017705,153.673372 L380.046182,153.673372 L380.046182,163.485756 L374.813836,163.485756 Z M380.046182,144.638207 L380.046182,149.815037 L381.323041,149.815037 C382.081758,149.815037 382.604525,149.555967 382.891357,149.037819 L383.057904,148.357752 L383.113419,147.136409 C383.113419,146.248155 383.030147,145.632863 382.863599,145.290515 C382.595272,144.855641 381.998486,144.638207 381.073221,144.638207 L380.046182,144.638207 Z M390.774573,163.485756 L390.774573,140.765993 L396.006919,140.765993 L396.006919,163.485756 L390.774573,163.485756 Z M398.505122,163.485756 L398.505122,140.765993 L405.749909,140.765993 C407.720723,140.765993 409.164114,141.163851 410.080126,141.959579 C410.96838,142.773812 411.412501,144.157062 411.412501,146.10937 C411.412501,147.571289 411.250582,148.653832 410.926739,149.357033 C410.528875,150.300803 409.733159,150.999368 408.539568,151.452748 C409.77017,151.684064 410.651472,152.264659 411.183499,153.19455 C411.715526,154.124441 411.981536,155.306449 411.981536,156.740609 C411.981536,158.776192 411.55592,160.376876 410.704677,161.542709 C409.733149,162.83808 408.141717,163.485756 405.930334,163.485756 L398.505122,163.485756 Z M403.737468,153.451309 L403.737468,159.613542 L404.820022,159.613542 C405.597245,159.613542 406.120011,159.414613 406.388338,159.016749 C406.628907,158.581875 406.74919,157.749149 406.74919,156.518547 C406.74919,155.528513 406.656664,154.81607 406.471612,154.381196 C406.203285,153.761268 405.68977,153.451309 404.931053,153.451309 L403.737468,153.451309 Z M403.737468,144.638207 L403.737468,149.759521 L404.708991,149.759521 C405.449203,149.759521 405.958091,149.500451 406.23567,148.982303 C406.429976,148.565934 406.527127,147.941389 406.527127,147.108651 C406.527127,146.257408 406.413784,145.632863 406.187094,145.234999 C405.960404,144.837136 405.532476,144.638207 404.903296,144.638207 L403.737468,144.638207 Z M413.327789,163.485756 L417.533096,140.765993 L424.472547,140.765993 L428.73337,163.485756 L423.251204,163.485756 L422.765443,159.446995 L419.101412,159.446995 L418.560135,163.485756 L413.327789,163.485756 Z M419.64269,155.408235 L422.251923,155.408235 L421.03058,144.291234 L419.64269,155.408235 Z M430.093503,163.485756 L430.093503,140.765993 L435.81161,140.765993 L440.016918,154.159133 L440.072433,140.765993 L445.138233,140.765993 L445.138233,163.485756 L439.447883,163.485756 L435.214818,149.440307 L435.159302,163.485756 L430.093503,163.485756 Z M447.456009,163.485756 L447.456009,140.765993 L452.521808,140.765993 L452.521808,150.064857 L456.074807,140.765993 L461.612489,140.765993 L457.268393,150.175889 L461.640247,163.485756 L456.074807,163.485756 L453.743152,155.352719 L452.521808,157.226371 L452.521808,163.485756 L447.456009,163.485756 Z" id="CÔNG-TY-DỊCH-VỤ-AGRIBANK" fill="#FFFFFF" sketch:type="MSShapeGroup"></path>
            <path d="M114.116395,124.949827 L114.116395,113.589946 L116.975449,113.589946 L119.078103,120.286516 L119.10586,113.589946 L121.63876,113.589946 L121.63876,124.949827 L118.793585,124.949827 L116.677053,117.927103 L116.649295,124.949827 L114.116395,124.949827 Z M122.797648,121.847893 L122.797648,116.691881 C122.797648,115.618574 123.114547,114.7951 123.748353,114.221436 C124.345149,113.680156 125.15243,113.40952 126.170222,113.40952 C127.174134,113.40952 127.955971,113.603823 128.515756,113.992434 C129.195826,114.464319 129.535855,115.197581 129.535855,116.19224 L129.535855,117.45522 L127.051532,117.45522 L127.051532,116.32409 C127.051532,115.727294 126.77627,115.428901 126.225737,115.428901 C125.948158,115.428901 125.726098,115.556123 125.55955,115.81057 C125.462397,116.018755 125.413821,116.236189 125.413821,116.462879 L125.413821,122.076895 C125.413821,122.419243 125.47165,122.685252 125.587308,122.874932 C125.69834,123.036853 125.892642,123.117812 126.170222,123.117812 C126.72538,123.117812 127.002956,122.833298 127.002956,122.26426 L127.002956,120.800036 L126.080009,120.800036 L126.080009,118.697382 L129.535855,118.697382 L129.535855,124.949827 L127.245837,124.949827 L127.245837,124.02688 C126.764699,124.762466 126.082326,125.130253 125.198698,125.130253 C124.356708,125.130253 123.722911,124.799476 123.297289,124.137912 C122.964194,123.587379 122.797648,122.824047 122.797648,121.847893 L122.797648,121.847893 Z M132.311636,113.576067 L135.781361,113.576067 L137.925652,124.949827 L135.17069,124.949827 L134.927809,122.930447 L133.095794,122.930447 L132.825155,124.949827 L130.208982,124.949827 L132.311636,113.576067 Z M131.957724,112.896001 L133.13743,110.966834 L135.142932,110.966834 L136.163031,112.896001 L134.684928,112.896001 L134.060377,111.813447 L133.352553,112.896001 L131.957724,112.896001 Z M133.366432,120.911067 L134.671049,120.911067 L134.060377,115.338688 L133.366432,120.911067 Z M138.591839,124.949827 L138.591839,113.589946 L141.450893,113.589946 L143.553546,120.286516 L143.581304,113.589946 L146.114204,113.589946 L146.114204,124.949827 L143.269029,124.949827 L141.152496,117.927103 L141.124739,124.949827 L138.591839,124.949827 Z M150.798333,124.949827 L150.798333,113.589946 L153.414506,113.589946 L153.414506,117.84383 L154.920367,117.84383 L154.920367,113.589946 L157.53654,113.589946 L157.53654,124.949827 L154.920367,124.949827 L154.920367,120.11303 L153.414506,120.11303 L153.414506,124.949827 L150.798333,124.949827 Z M160.312321,113.576067 L163.782046,113.576067 L165.926337,124.949827 L163.171374,124.949827 L162.928494,122.930447 L161.096479,122.930447 L160.82584,124.949827 L158.209667,124.949827 L160.312321,113.576067 Z M162.373338,110.966834 L162.997888,112.896001 L161.679392,112.896001 L160.131895,110.966834 L162.373338,110.966834 Z M161.367117,120.911067 L162.671734,120.911067 L162.061062,115.338688 L161.367117,120.911067 Z M166.592524,124.949827 L166.592524,113.589946 L169.451578,113.589946 L171.554231,120.286516 L171.581989,113.589946 L174.114889,113.589946 L174.114889,124.949827 L171.269714,124.949827 L169.153181,117.927103 L169.125423,124.949827 L166.592524,124.949827 Z M175.273777,121.847893 L175.273777,116.691881 C175.273777,115.618574 175.590675,114.7951 176.224482,114.221436 C176.821278,113.680156 177.628559,113.40952 178.64635,113.40952 C179.650263,113.40952 180.4321,113.603823 180.991885,113.992434 C181.671954,114.464319 182.011984,115.197581 182.011984,116.19224 L182.011984,117.45522 L179.527661,117.45522 L179.527661,116.32409 C179.527661,115.727294 179.252398,115.428901 178.701866,115.428901 C178.424286,115.428901 178.202226,115.556123 178.035679,115.81057 C177.938526,116.018755 177.88995,116.236189 177.88995,116.462879 L177.88995,122.076895 C177.88995,122.419243 177.947778,122.685252 178.063436,122.874932 C178.174468,123.036853 178.368771,123.117812 178.64635,123.117812 C179.201509,123.117812 179.479084,122.833298 179.479084,122.26426 L179.479084,120.800036 L178.556137,120.800036 L178.556137,118.697382 L182.011984,118.697382 L182.011984,124.949827 L179.721965,124.949827 L179.721965,124.02688 C179.240827,124.762466 178.558455,125.130253 177.674827,125.130253 C176.832836,125.130253 176.199039,124.799476 175.773418,124.137912 C175.440322,123.587379 175.273777,122.824047 175.273777,121.847893 L175.273777,121.847893 Z M186.696113,124.949827 L186.696113,113.589946 L189.555167,113.589946 L191.657821,120.286516 L191.685579,113.589946 L194.218478,113.589946 L194.218478,124.949827 L191.373303,124.949827 L189.256771,117.927103 L189.229013,124.949827 L186.696113,124.949827 Z M195.377367,116.678002 C195.377367,115.604695 195.694265,114.778908 196.328071,114.200618 C196.924867,113.663964 197.732149,113.395642 198.74994,113.395642 C199.753852,113.395642 200.568073,113.670904 201.192627,114.221436 C201.81718,114.776595 202.129453,115.595442 202.129453,116.678002 L202.129453,121.847893 C202.129453,122.842552 201.826433,123.638268 201.220384,124.235064 C200.614336,124.83186 199.790863,125.130253 198.74994,125.130253 C197.722896,125.130253 196.906362,124.836486 196.300314,124.248943 C195.685013,123.6614 195.377367,122.861058 195.377367,121.847893 L195.377367,116.678002 Z M196.640347,112.896001 L197.820053,110.966834 L199.825555,110.966834 L200.852594,112.896001 L199.37449,112.896001 L198.74994,111.813447 L198.035176,112.896001 L196.640347,112.896001 Z M197.99354,122.076895 C197.99354,122.419243 198.051368,122.685252 198.167026,122.874932 C198.278058,123.036853 198.47236,123.117812 198.74994,123.117812 C199.059904,123.117812 199.277338,122.983651 199.402248,122.715324 C199.467017,122.516392 199.499401,122.303585 199.499401,122.076895 L199.499401,116.449 C199.499401,116.176047 199.471643,115.958613 199.416127,115.796692 C199.300469,115.542244 199.078409,115.415022 198.74994,115.415022 C198.43535,115.415022 198.215603,115.537618 198.090692,115.782813 C198.025923,115.981745 197.99354,116.203805 197.99354,116.449 L197.99354,122.076895 Z M203.274462,124.949827 L203.274462,113.589946 L206.133516,113.589946 L208.236169,120.286516 L208.263927,113.589946 L210.796827,113.589946 L210.796827,124.949827 L207.951652,124.949827 L205.835119,117.927103 L205.807362,124.949827 L203.274462,124.949827 Z M211.955715,121.847893 L211.955715,116.691881 C211.955715,115.618574 212.272614,114.7951 212.90642,114.221436 C213.503216,113.680156 214.310497,113.40952 215.328288,113.40952 C216.332201,113.40952 217.114038,113.603823 217.673823,113.992434 C218.353892,114.464319 218.693922,115.197581 218.693922,116.19224 L218.693922,117.45522 L216.209599,117.45522 L216.209599,116.32409 C216.209599,115.727294 215.934336,115.428901 215.383804,115.428901 C215.106225,115.428901 214.884164,115.556123 214.717617,115.81057 C214.620464,116.018755 214.571888,116.236189 214.571888,116.462879 L214.571888,122.076895 C214.571888,122.419243 214.629716,122.685252 214.745374,122.874932 C214.856406,123.036853 215.050709,123.117812 215.328288,123.117812 C215.883447,123.117812 216.161022,122.833298 216.161022,122.26426 L216.161022,120.800036 L215.238075,120.800036 L215.238075,118.697382 L218.693922,118.697382 L218.693922,124.949827 L216.403903,124.949827 L216.403903,124.02688 C215.922766,124.762466 215.240393,125.130253 214.356765,125.130253 C213.514774,125.130253 212.880977,124.799476 212.455356,124.137912 C212.12226,123.587379 211.955715,122.824047 211.955715,121.847893 L211.955715,121.847893 Z M223.378052,124.949827 L223.378052,113.589946 L226.237105,113.589946 L228.339759,120.286516 L228.367517,113.589946 L230.900416,113.589946 L230.900416,124.949827 L228.055242,124.949827 L225.938709,117.927103 L225.910951,124.949827 L223.378052,124.949827 Z M232.059305,121.847893 L232.059305,116.691881 C232.059305,115.618574 232.376203,114.7951 233.01001,114.221436 C233.606805,113.680156 234.414087,113.40952 235.431878,113.40952 C236.43579,113.40952 237.217627,113.603823 237.777412,113.992434 C238.457482,114.464319 238.797512,115.197581 238.797512,116.19224 L238.797512,117.45522 L236.313188,117.45522 L236.313188,116.32409 C236.313188,115.727294 236.037926,115.428901 235.487394,115.428901 C235.209814,115.428901 234.987754,115.556123 234.821206,115.81057 C234.724053,116.018755 234.675478,116.236189 234.675478,116.462879 L234.675478,122.076895 C234.675478,122.419243 234.733306,122.685252 234.848964,122.874932 C234.959996,123.036853 235.154299,123.117812 235.431878,123.117812 C235.987037,123.117812 236.264612,122.833298 236.264612,122.26426 L236.264612,120.800036 L235.341665,120.800036 L235.341665,118.697382 L238.797512,118.697382 L238.797512,124.949827 L236.507493,124.949827 L236.507493,124.02688 C236.026355,124.762466 235.343983,125.130253 234.460355,125.130253 C233.618364,125.130253 232.984567,124.799476 232.558945,124.137912 C232.22585,123.587379 232.059305,122.824047 232.059305,121.847893 L232.059305,121.847893 Z M239.9564,124.949827 L239.9564,113.589946 L242.572573,113.589946 L242.572573,117.84383 L244.078434,117.84383 L244.078434,113.589946 L246.694607,113.589946 L246.694607,124.949827 L244.078434,124.949827 L244.078434,120.11303 L242.572573,120.11303 L242.572573,124.949827 L239.9564,124.949827 Z M247.936769,124.949827 L247.936769,113.589946 L250.552942,113.589946 L250.552942,124.949827 L247.936769,124.949827 Z M251.802043,113.576067 L257.617303,113.576067 L257.617303,115.768934 L254.418216,115.768934 L254.418216,118.038134 L257.221754,118.038134 L257.221754,120.231001 L254.418216,120.231001 L254.418216,122.756961 L257.742213,122.756961 L257.742213,124.949827 L251.802043,124.949827 L251.802043,113.576067 Z M252.669474,112.896001 L253.849181,110.966834 L255.854682,110.966834 L256.874782,112.896001 L255.396679,112.896001 L254.772128,111.813447 L254.064304,112.896001 L252.669474,112.896001 Z M253.453632,126.039321 L255.896319,126.039321 L255.896319,127.718668 L253.453632,127.718668 L253.453632,126.039321 Z M261.524214,115.609326 L261.524214,118.426744 L262.176522,118.426744 C262.555881,118.426744 262.817264,118.327279 262.96068,118.128347 C263.085591,117.901657 263.148045,117.522304 263.148045,116.990277 C263.148045,116.365723 263.037015,115.963239 262.814952,115.782813 C262.676162,115.667155 262.345385,115.609326 261.82261,115.609326 L261.524214,115.609326 Z M258.908041,124.949827 L258.908041,113.589946 L261.711579,113.589946 C263.215134,113.589946 264.246789,113.793501 264.806574,114.200618 C265.440381,114.677129 265.757279,115.625511 265.757279,117.045793 C265.757279,117.434404 265.752653,117.700414 265.7434,117.84383 C265.724895,117.996498 265.687885,118.213932 265.632369,118.496138 C265.576853,118.787596 265.454257,119.076737 265.264578,119.363569 C264.815824,120.085276 264.061745,120.446124 263.002317,120.446124 L261.524214,120.446124 L261.524214,124.949827 L258.908041,124.949827 Z M271.579478,124.949827 L269.844616,113.589946 L272.516304,113.589946 L273.231068,121.667467 L274.126257,113.589946 L276.749369,113.589946 L274.820202,124.949827 L271.579478,124.949827 Z M279.053267,113.576067 L282.522993,113.576067 L284.667283,124.949827 L281.912321,124.949827 L281.66944,122.930447 L279.837425,122.930447 L279.566786,124.949827 L276.950613,124.949827 L279.053267,113.576067 Z M281.114284,110.966834 L281.738835,112.896001 L280.420339,112.896001 L278.872841,110.966834 L281.114284,110.966834 Z M280.108064,120.911067 L281.41268,120.911067 L280.802009,115.338688 L280.108064,120.911067 Z M291.474884,115.609326 L291.474884,118.426744 L292.127193,118.426744 C292.506551,118.426744 292.767935,118.327279 292.911351,118.128347 C293.036262,117.901657 293.098716,117.522304 293.098716,116.990277 C293.098716,116.365723 292.987686,115.963239 292.765622,115.782813 C292.626833,115.667155 292.296055,115.609326 291.773281,115.609326 L291.474884,115.609326 Z M288.858711,124.949827 L288.858711,113.589946 L291.66225,113.589946 C293.165805,113.589946 294.19746,113.793501 294.757245,114.200618 C295.391051,114.677129 295.70795,115.625511 295.70795,117.045793 C295.70795,117.434404 295.703323,117.700414 295.694071,117.84383 C295.675565,117.996498 295.638555,118.213932 295.583039,118.496138 C295.527524,118.787596 295.404928,119.076737 295.215249,119.363569 C294.766495,120.085276 294.012416,120.446124 292.952987,120.446124 L291.474884,120.446124 L291.474884,124.949827 L288.858711,124.949827 Z M296.755807,124.949827 L296.755807,113.589946 L299.37198,113.589946 L299.37198,117.84383 L300.877841,117.84383 L300.877841,113.589946 L303.494014,113.589946 L303.494014,124.949827 L300.877841,124.949827 L300.877841,120.11303 L299.37198,120.11303 L299.37198,124.949827 L296.755807,124.949827 Z M306.269794,113.576067 L309.73952,113.576067 L311.88381,124.949827 L309.128848,124.949827 L308.885967,122.930447 L307.053952,122.930447 L306.783313,124.949827 L304.16714,124.949827 L306.269794,113.576067 Z M307.747897,110.966834 L309.954642,110.966834 L308.448782,112.896001 L307.08171,112.896001 L307.747897,110.966834 Z M307.324591,120.911067 L308.629207,120.911067 L308.018536,115.338688 L307.324591,120.911067 Z M312.119751,115.782813 L312.119751,113.589946 L318.122376,113.589946 L318.122376,115.782813 L316.42915,115.782813 L316.42915,124.949827 L313.812977,124.949827 L313.812977,115.782813 L312.119751,115.782813 Z M321.952953,115.782813 L321.952953,113.589946 L327.955578,113.589946 L327.955578,115.782813 L326.262352,115.782813 L326.262352,124.949827 L323.646179,124.949827 L323.646179,115.782813 L321.952953,115.782813 Z M328.69116,124.949827 L328.69116,113.589946 L332.147007,113.589946 C333.31284,113.589946 334.154819,113.793501 334.672967,114.200618 C335.195742,114.612361 335.457125,115.324804 335.457125,116.337969 C335.457125,117.064302 335.371539,117.612513 335.200365,117.982619 C334.973675,118.440625 334.534181,118.769089 333.88187,118.968021 C334.353755,119.051295 334.721542,119.264102 334.985242,119.60645 C335.262822,119.925667 335.401609,120.323524 335.401609,120.800036 L335.401609,122.805537 L335.401609,123.610513 L335.401609,123.922789 C335.401609,124.029194 335.410862,124.137911 335.429367,124.248943 C335.429367,124.526522 335.510327,124.760148 335.672248,124.949827 L333.083833,124.949827 C333.000559,124.852675 332.924226,124.628301 332.854831,124.276701 C332.81782,123.97599 332.799315,123.693788 332.799315,123.430088 C332.790063,123.161761 332.785436,122.953579 332.785436,122.805537 L332.785436,120.980461 C332.785436,120.670498 332.709103,120.434559 332.556434,120.272637 C332.408392,120.119969 332.153948,120.043636 331.793095,120.043636 L331.307333,120.043636 L331.307333,124.949827 L328.69116,124.949827 Z M331.307333,115.526053 L331.307333,118.114468 L331.945763,118.114468 C332.325121,118.114468 332.586505,117.984933 332.729921,117.725859 L332.813194,117.385826 L332.840952,116.775154 C332.840952,116.331027 332.799316,116.023381 332.716042,115.852207 C332.581878,115.63477 332.283485,115.526053 331.820853,115.526053 L331.307333,115.526053 Z M336.671529,124.949827 L336.671529,113.589946 L339.287702,113.589946 L339.287702,124.949827 L336.671529,124.949827 Z M340.536803,113.576067 L346.352063,113.576067 L346.352063,115.768934 L343.152976,115.768934 L343.152976,118.038134 L345.956514,118.038134 L345.956514,120.231001 L343.152976,120.231001 L343.152976,122.756961 L346.476973,122.756961 L346.476973,124.949827 L340.536803,124.949827 L340.536803,113.576067 Z M341.404235,112.896001 L342.583941,110.966834 L344.589443,110.966834 L345.609542,112.896001 L344.131439,112.896001 L343.506888,111.813447 L342.799064,112.896001 L341.404235,112.896001 Z M345.373601,111.702415 L345.373601,111.417898 C345.373601,111.218966 345.591034,110.888189 346.025909,110.425556 C346.118435,110.328404 346.193612,110.223156 346.251441,110.109811 C346.30927,109.996467 346.338184,109.881967 346.338184,109.766309 C346.338184,109.618266 346.315053,109.514176 346.26879,109.454033 C346.236405,109.398517 346.146193,109.366134 345.998151,109.356881 C345.683561,109.356881 345.526268,109.5188 345.526268,109.842643 L345.526268,110.182676 L344.561685,110.182676 L344.561685,109.766309 C344.561685,109.456345 344.679654,109.17877 344.915597,108.933575 C345.18855,108.655995 345.563276,108.517207 346.039788,108.517207 C346.446904,108.517207 346.777681,108.616672 347.032129,108.815604 C347.286577,109.014536 347.413799,109.312929 347.413799,109.710793 C347.413799,110.071646 347.219496,110.413989 346.830885,110.737832 C346.433021,111.057048 346.234092,111.378573 346.234092,111.702415 L345.373601,111.702415 Z M347.642801,124.949827 L347.642801,113.589946 L350.501855,113.589946 L352.604508,120.286516 L352.632266,113.589946 L355.165166,113.589946 L355.165166,124.949827 L352.319991,124.949827 L350.203458,117.927103 L350.175701,124.949827 L347.642801,124.949827 Z M359.849295,124.949827 L359.849295,113.589946 L362.708349,113.589946 L364.811003,120.286516 L364.838761,113.589946 L367.37166,113.589946 L367.37166,124.949827 L364.526485,124.949827 L362.409953,117.927103 L362.382195,124.949827 L359.849295,124.949827 Z M368.530549,116.678002 C368.530549,115.604695 368.847447,114.778908 369.481253,114.200618 C370.078049,113.663964 370.885331,113.395642 371.903122,113.395642 C372.907034,113.395642 373.721255,113.670904 374.345809,114.221436 C374.970362,114.776595 375.282634,115.595442 375.282634,116.678002 L375.282634,121.847893 C375.282634,122.842552 374.979615,123.638268 374.373566,124.235064 C373.767518,124.83186 372.944045,125.130253 371.903122,125.130253 C370.876078,125.130253 370.059544,124.836486 369.453496,124.248943 C368.838194,123.6614 368.530549,122.861058 368.530549,121.847893 L368.530549,116.678002 Z M369.793529,112.896001 L370.973235,110.966834 L372.978737,110.966834 L374.005775,112.896001 L372.527672,112.896001 L371.903122,111.813447 L371.188358,112.896001 L369.793529,112.896001 Z M371.146722,122.076895 C371.146722,122.419243 371.20455,122.685252 371.320208,122.874932 C371.43124,123.036853 371.625542,123.117812 371.903122,123.117812 C372.213085,123.117812 372.430519,122.983651 372.55543,122.715324 C372.620199,122.516392 372.652582,122.303585 372.652582,122.076895 L372.652582,116.449 C372.652582,116.176047 372.624825,115.958613 372.569309,115.796692 C372.453651,115.542244 372.231591,115.415022 371.903122,115.415022 C371.588532,115.415022 371.368785,115.537618 371.243874,115.782813 C371.179105,115.981745 371.146722,116.203805 371.146722,116.449 L371.146722,122.076895 Z M376.427644,124.949827 L376.427644,113.589946 L379.286698,113.589946 L381.389351,120.286516 L381.417109,113.589946 L383.950009,113.589946 L383.950009,124.949827 L381.104834,124.949827 L378.988301,117.927103 L378.960543,124.949827 L376.427644,124.949827 Z M385.108897,121.847893 L385.108897,116.691881 C385.108897,115.618574 385.425795,114.7951 386.059602,114.221436 C386.656398,113.680156 387.463679,113.40952 388.48147,113.40952 C389.485383,113.40952 390.26722,113.603823 390.827005,113.992434 C391.507074,114.464319 391.847104,115.197581 391.847104,116.19224 L391.847104,117.45522 L389.362781,117.45522 L389.362781,116.32409 C389.362781,115.727294 389.087518,115.428901 388.536986,115.428901 C388.259406,115.428901 388.037346,115.556123 387.870799,115.81057 C387.773646,116.018755 387.72507,116.236189 387.72507,116.462879 L387.72507,122.076895 C387.72507,122.419243 387.782898,122.685252 387.898556,122.874932 C388.009588,123.036853 388.203891,123.117812 388.48147,123.117812 C389.036629,123.117812 389.314204,122.833298 389.314204,122.26426 L389.314204,120.800036 L388.391257,120.800036 L388.391257,118.697382 L391.847104,118.697382 L391.847104,124.949827 L389.557085,124.949827 L389.557085,124.02688 C389.075947,124.762466 388.393575,125.130253 387.509947,125.130253 C386.667956,125.130253 386.034159,124.799476 385.608538,124.137912 C385.275442,123.587379 385.108897,122.824047 385.108897,121.847893 L385.108897,121.847893 Z M396.100987,115.782813 L396.100987,113.589946 L402.103613,113.589946 L402.103613,115.782813 L400.410387,115.782813 L400.410387,124.949827 L397.794214,124.949827 L397.794214,115.782813 L396.100987,115.782813 Z M402.839194,124.949827 L402.839194,113.589946 L405.455367,113.589946 L405.455367,117.84383 L406.961228,117.84383 L406.961228,113.589946 L409.577401,113.589946 L409.577401,124.949827 L406.961228,124.949827 L406.961228,120.11303 L405.455367,120.11303 L405.455367,124.949827 L402.839194,124.949827 Z M410.73629,116.678002 C410.73629,115.604695 411.053188,114.778908 411.686994,114.200618 C412.28379,113.663964 413.091072,113.395642 414.108863,113.395642 C415.112775,113.395642 415.926996,113.670904 416.55155,114.221436 C417.176103,114.776595 417.488376,115.595442 417.488376,116.678002 L417.488376,121.847893 C417.488376,122.842552 417.185356,123.638268 416.579307,124.235064 C415.973259,124.83186 415.149786,125.130253 414.108863,125.130253 C413.081819,125.130253 412.265285,124.836486 411.659237,124.248943 C411.043936,123.6614 410.73629,122.861058 410.73629,121.847893 L410.73629,116.678002 Z M411.99927,112.896001 L413.178976,110.966834 L415.184478,110.966834 L416.211517,112.896001 L414.733413,112.896001 L414.108863,111.813447 L413.394099,112.896001 L411.99927,112.896001 Z M413.352463,122.076895 C413.352463,122.419243 413.410291,122.685252 413.525949,122.874932 C413.636981,123.036853 413.831283,123.117812 414.108863,123.117812 C414.418827,123.117812 414.636261,122.983651 414.761171,122.715324 C414.82594,122.516392 414.858324,122.303585 414.858324,122.076895 L414.858324,116.449 C414.858324,116.176047 414.830566,115.958613 414.77505,115.796692 C414.659392,115.542244 414.437332,115.415022 414.108863,115.415022 C413.794273,115.415022 413.574526,115.537618 413.449615,115.782813 C413.384847,115.981745 413.352463,116.203805 413.352463,116.449 L413.352463,122.076895 Z M418.633385,124.949827 L418.633385,113.589946 L421.492439,113.589946 L423.595092,120.286516 L423.62285,113.589946 L426.15575,113.589946 L426.15575,124.949827 L423.310575,124.949827 L421.194042,117.927103 L421.166285,124.949827 L418.633385,124.949827 Z M432.08898,124.949827 L430.354118,113.589946 L433.025806,113.589946 L433.74057,121.667467 L434.635759,113.589946 L437.258871,113.589946 L435.329704,124.949827 L432.08898,124.949827 Z M438.029151,124.949827 L438.029151,113.589946 L440.645324,113.589946 L440.645324,124.949827 L438.029151,124.949827 Z M441.894425,113.576067 L447.709685,113.576067 L447.709685,115.768934 L444.510598,115.768934 L444.510598,118.038134 L447.314136,118.038134 L447.314136,120.231001 L444.510598,120.231001 L444.510598,122.756961 L447.834595,122.756961 L447.834595,124.949827 L441.894425,124.949827 L441.894425,113.576067 Z M442.761856,112.896001 L443.941563,110.966834 L445.947064,110.966834 L446.967163,112.896001 L445.48906,112.896001 L444.86451,111.813447 L444.156686,112.896001 L442.761856,112.896001 Z M443.546014,126.039321 L445.988701,126.039321 L445.988701,127.718668 L443.546014,127.718668 L443.546014,126.039321 Z M448.570177,115.782813 L448.570177,113.589946 L454.572802,113.589946 L454.572802,115.782813 L452.879576,115.782813 L452.879576,124.949827 L450.263403,124.949827 L450.263403,115.782813 L448.570177,115.782813 Z M458.833625,124.949827 L458.833625,113.589946 L461.692679,113.589946 L463.795332,120.286516 L463.82309,113.589946 L466.35599,113.589946 L466.35599,124.949827 L463.510815,124.949827 L461.394282,117.927103 L461.366524,124.949827 L458.833625,124.949827 Z M467.029116,124.949827 L469.13177,113.589946 L472.601496,113.589946 L474.731907,124.949827 L471.990824,124.949827 L471.747943,122.930447 L469.915928,122.930447 L469.645289,124.949827 L467.029116,124.949827 Z M470.186567,120.911067 L471.491183,120.911067 L470.880512,115.352567 L470.186567,120.911067 Z M475.481368,124.949827 L475.481368,113.589946 L479.603402,113.589946 L480.345923,119.217841 L481.109263,113.589946 L485.231296,113.589946 L485.231296,124.949827 L482.705336,124.949827 L482.705336,116.122846 L481.213354,124.949827 L479.506249,124.949827 L478.042025,116.122846 L478.014267,124.949827 L475.481368,124.949827 Z" id="NGÂN-HÀNG-NÔNG-NGHIỆP-VÀ-PHÁT-TRIỂN-NÔNG-THÔN-VIỆT-NAM" fill="#FFFFFF" sketch:type="MSShapeGroup"></path>
        </g>
    </g>
</svg>