<?xml version="1.0" encoding="UTF-8" standalone="no"?>
<svg width="727px" height="880px" viewBox="0 0 727 880" version="1.1" xmlns="http://www.w3.org/2000/svg" xmlns:xlink="http://www.w3.org/1999/xlink" xmlns:sketch="http://www.bohemiancoding.com/sketch/ns">
    <!-- Generator: Sketch 3.3.3 (12081) - http://www.bohemiancoding.com/sketch -->
    <title>VN</title>
    <desc>Created with Sketch.</desc>
    <defs></defs>
    <g id="Page-1" stroke="none" stroke-width="1" fill="none" fill-rule="evenodd" sketch:type="MSPage">
        <g id="VN" sketch:type="MSLayerGroup">
            <path d="M0,0 L727,0 L727,880 L0,880 L0,0 Z" id="Shape" fill="#E5E5E5" sketch:type="MSShapeGroup"></path>
            <circle id="Oval" fill="#D0011B" sketch:type="MSShapeGroup" cx="224.999997" cy="729.999987" r="8"></circle>
            <circle id="Oval" fill="#D0011B" sketch:type="MSShapeGroup" cx="190.999994" cy="152.000004" r="8"></circle>
            <g id="Group" transform="translate(29.000000, 41.000000)" fill="#9B9B9B" sketch:type="MSShapeGroup">
                <circle id="Oval" cx="127.999991" cy="8.99999692" r="8"></circle>
                <circle id="Oval" cx="144.999992" cy="8.99999692" r="8"></circle>
                <circle id="Oval" cx="161.999994" cy="8.99999692" r="8"></circle>
                <circle id="Oval" cx="93.9999874" cy="25.9999805" r="8"></circle>
                <ellipse id="Oval" cx="110.999989" cy="25.9999805" rx="8" ry="8"></ellipse>
                <circle id="Oval" cx="127.999991" cy="25.9999805" r="8"></circle>
                <circle id="Oval" cx="144.999992" cy="25.9999805" r="8"></circle>
                <circle id="Oval" cx="161.999994" cy="25.9999805" r="8"></circle>
                <circle id="Oval" cx="178.999996" cy="25.9999805" r="8"></circle>
                <circle id="Oval" cx="195.999997" cy="25.9999805" r="8"></circle>
                <circle id="Oval" cx="212.999999" cy="25.9999805" r="8"></circle>
                <circle id="Oval" cx="230" cy="25.9999805" r="8"></circle>
                <circle id="Oval" cx="8.99997914" cy="42.9999889" r="8"></circle>
                <circle id="Oval" cx="25.9999808" cy="42.9999889" r="8"></circle>
                <circle id="Oval" cx="42.9999824" cy="42.9999889" r="8"></circle>
                <circle id="Oval" cx="59.9999841" cy="42.9999889" r="8"></circle>
                <circle id="Oval" cx="76.9999857" cy="42.9999889" r="8"></circle>
                <circle id="Oval" cx="93.9999874" cy="42.9999889" r="8"></circle>
                <ellipse id="Oval" cx="110.999989" cy="42.9999889" rx="8" ry="8"></ellipse>
                <circle id="Oval" cx="127.999991" cy="42.9999889" r="8"></circle>
                <circle id="Oval" cx="195.999997" cy="42.9999889" r="8"></circle>
                <circle id="Oval" cx="212.999999" cy="42.9999889" r="8"></circle>
                <circle id="Oval" cx="8.99997914" cy="60.0000272" r="8"></circle>
                <circle id="Oval" cx="25.9999808" cy="60.0000272" r="8"></circle>
                <circle id="Oval" cx="42.9999824" cy="60.0000272" r="8"></circle>
                <circle id="Oval" cx="59.9999841" cy="60.0000272" r="8"></circle>
                <circle id="Oval" cx="76.9999857" cy="60.0000272" r="8"></circle>
                <circle id="Oval" cx="93.9999874" cy="60.0000272" r="8"></circle>
                <ellipse id="Oval" cx="110.999989" cy="60.0000272" rx="8" ry="8"></ellipse>
                <circle id="Oval" cx="25.9999808" cy="76.9999941" r="8"></circle>
                <circle id="Oval" cx="42.9999824" cy="76.9999941" r="8"></circle>
                <circle id="Oval" cx="59.9999841" cy="76.9999941" r="8"></circle>
                <circle id="Oval" cx="76.9999857" cy="76.9999941" r="8"></circle>
                <circle id="Oval" cx="93.9999874" cy="76.9999941" r="8"></circle>
                <ellipse id="Oval" cx="110.999989" cy="76.9999941" rx="8" ry="8"></ellipse>
                <circle id="Oval" cx="127.999991" cy="76.9999941" r="8"></circle>
                <circle id="Oval" cx="195.999997" cy="76.9999941" r="8"></circle>
                <circle id="Oval" cx="212.999999" cy="76.9999941" r="8"></circle>
                <circle id="Oval" cx="230" cy="76.9999941" r="8"></circle>
                <circle id="Oval" cx="42.9999824" cy="94.0000165" r="8"></circle>
                <circle id="Oval" cx="59.9999841" cy="94.0000165" r="8"></circle>
                <circle id="Oval" cx="76.9999857" cy="94.0000165" r="8"></circle>
                <circle id="Oval" cx="93.9999874" cy="94.0000165" r="8"></circle>
                <ellipse id="Oval" cx="110.999989" cy="94.0000165" rx="8" ry="8"></ellipse>
                <circle id="Oval" cx="127.999991" cy="94.0000165" r="8"></circle>
                <circle id="Oval" cx="178.999996" cy="94.0000165" r="8"></circle>
                <circle id="Oval" cx="264.000004" cy="94.0000165" r="8"></circle>
                <circle id="Oval" cx="281.000005" cy="94.0000165" r="8"></circle>
                <circle id="Oval" cx="25.9999808" cy="111.000004" r="8"></circle>
                <circle id="Oval" cx="42.9999824" cy="111.000004" r="8"></circle>
                <circle id="Oval" cx="59.9999841" cy="111.000004" r="8"></circle>
                <circle id="Oval" cx="76.9999857" cy="111.000004" r="8"></circle>
                <circle id="Oval" cx="93.9999874" cy="111.000004" r="8"></circle>
                <ellipse id="Oval" cx="110.999989" cy="111.000004" rx="8" ry="8"></ellipse>
                <circle id="Oval" cx="76.9999857" cy="127.999981" r="8"></circle>
                <circle id="Oval" cx="93.9999874" cy="127.999981" r="8"></circle>
                <ellipse id="Oval" cx="110.999989" cy="127.999981" rx="8" ry="8"></ellipse>
                <circle id="Oval" cx="127.999991" cy="127.999981" r="8"></circle>
                <circle id="Oval" cx="212.999999" cy="127.999981" r="8"></circle>
                <circle id="Oval" cx="230" cy="127.999981" r="8"></circle>
                <circle id="Oval" cx="247.000002" cy="127.999981" r="8"></circle>
                <circle id="Oval" cx="264.000004" cy="127.999981" r="8"></circle>
                <circle id="Oval" cx="127.999991" cy="144.999978" r="8"></circle>
                <circle id="Oval" cx="144.999992" cy="144.999978" r="8"></circle>
                <circle id="Oval" cx="161.999994" cy="144.999978" r="8"></circle>
                <circle id="Oval" cx="178.999996" cy="144.999978" r="8"></circle>
                <circle id="Oval" cx="127.999991" cy="161.999975" r="8"></circle>
                <circle id="Oval" cx="144.999992" cy="161.999975" r="8"></circle>
                <circle id="Oval" cx="161.999994" cy="161.999975" r="8"></circle>
                <circle id="Oval" cx="178.999996" cy="161.999975" r="8"></circle>
                <circle id="Oval" cx="195.999997" cy="161.999975" r="8"></circle>
                <circle id="Oval" cx="212.999999" cy="161.999975" r="8"></circle>
                <circle id="Oval" cx="144.999992" cy="179.000012" r="8"></circle>
                <circle id="Oval" cx="161.999994" cy="179.000012" r="8"></circle>
                <circle id="Oval" cx="178.999996" cy="179.000012" r="8"></circle>
                <circle id="Oval" cx="195.999997" cy="179.000012" r="8"></circle>
                <circle id="Oval" cx="127.999991" cy="196.000023" r="8"></circle>
                <circle id="Oval" cx="144.999992" cy="196.000023" r="8"></circle>
                <circle id="Oval" cx="161.999994" cy="196.000023" r="8"></circle>
                <circle id="Oval" cx="178.999996" cy="196.000023" r="8"></circle>
                <circle id="Oval" cx="93.9999874" cy="213.000003" r="8"></circle>
                <ellipse id="Oval" cx="110.999989" cy="213.000003" rx="8" ry="8"></ellipse>
                <circle id="Oval" cx="127.999991" cy="213.000003" r="8"></circle>
                <circle id="Oval" cx="144.999992" cy="213.000003" r="8"></circle>
                <circle id="Oval" cx="161.999994" cy="213.000003" r="8"></circle>
                <ellipse id="Oval" cx="110.999989" cy="230.000006" rx="8" ry="8"></ellipse>
                <circle id="Oval" cx="127.999991" cy="230.000006" r="8"></circle>
                <circle id="Oval" cx="144.999992" cy="230.000006" r="8"></circle>
                <circle id="Oval" cx="161.999994" cy="230.000006" r="8"></circle>
                <circle id="Oval" cx="127.999991" cy="246.99998" r="8"></circle>
                <circle id="Oval" cx="144.999992" cy="246.99998" r="8"></circle>
                <circle id="Oval" cx="161.999994" cy="246.99998" r="8"></circle>
                <circle id="Oval-Copy-5" cx="496.999994" cy="246.99998" r="8"></circle>
                <circle id="Oval" cx="144.999992" cy="263.999989" r="8"></circle>
                <circle id="Oval" cx="161.999994" cy="263.999989" r="8"></circle>
                <circle id="Oval" cx="178.999996" cy="263.999989" r="8"></circle>
                <circle id="Oval-Copy-4" cx="413.999996" cy="263.999989" r="8"></circle>
                <circle id="Oval" cx="161.999994" cy="280.999991" r="8"></circle>
                <circle id="Oval" cx="178.999996" cy="280.999991" r="8"></circle>
                <circle id="Oval" cx="195.999997" cy="280.999991" r="8"></circle>
                <circle id="Oval-Copy-6" cx="488.999994" cy="280.999991" r="8"></circle>
                <circle id="Oval" cx="178.999996" cy="298.000003" r="8"></circle>
                <circle id="Oval" cx="195.999997" cy="298.000003" r="8"></circle>
                <circle id="Oval" cx="195.999997" cy="314.999993" r="8"></circle>
                <circle id="Oval" cx="212.999999" cy="314.999993" r="8"></circle>
                <circle id="Oval" cx="212.999999" cy="331.999988" r="8"></circle>
                <circle id="Oval" cx="230" cy="331.999988" r="8"></circle>
                <circle id="Oval" cx="230" cy="349.000017" r="8"></circle>
                <circle id="Oval" cx="247.000002" cy="349.000017" r="8"></circle>
                <circle id="Oval" cx="230" cy="366.000008" r="8"></circle>
                <circle id="Oval" cx="247.000002" cy="366.000008" r="8"></circle>
                <circle id="Oval" cx="264.000004" cy="366.000008" r="8"></circle>
                <circle id="Oval" cx="247.000002" cy="382.999999" r="8"></circle>
                <circle id="Oval" cx="264.000004" cy="382.999999" r="8"></circle>
                <circle id="Oval" cx="281.000005" cy="382.999999" r="8"></circle>
                <circle id="Oval" cx="264.000004" cy="399.99998" r="8"></circle>
                <circle id="Oval" cx="281.000005" cy="399.99998" r="8"></circle>
                <circle id="Oval" cx="298.000007" cy="399.99998" r="8"></circle>
                <circle id="Oval" cx="264.000004" cy="416.999997" r="8"></circle>
                <circle id="Oval" cx="281.000005" cy="416.999997" r="8"></circle>
                <circle id="Oval" cx="298.000007" cy="416.999997" r="8"></circle>
                <circle id="Oval" cx="315.000009" cy="416.999997" r="8"></circle>
                <circle id="Oval" cx="281.000005" cy="433.999995" r="8"></circle>
                <circle id="Oval" cx="298.000007" cy="433.999995" r="8"></circle>
                <circle id="Oval" cx="315.000009" cy="433.999995" r="8"></circle>
                <circle id="Oval" cx="332.00001" cy="433.999995" r="8"></circle>
                <circle id="Oval" cx="264.000004" cy="450.999975" r="8"></circle>
                <circle id="Oval" cx="281.000005" cy="450.999975" r="8"></circle>
                <circle id="Oval" cx="298.000007" cy="450.999975" r="8"></circle>
                <circle id="Oval" cx="315.000009" cy="450.999975" r="8"></circle>
                <circle id="Oval" cx="332.00001" cy="450.999975" r="8"></circle>
                <circle id="Oval" cx="281.000005" cy="467.999996" r="8"></circle>
                <circle id="Oval" cx="298.000007" cy="467.999996" r="8"></circle>
                <circle id="Oval" cx="315.000009" cy="467.999996" r="8"></circle>
                <circle id="Oval" cx="332.00001" cy="467.999996" r="8"></circle>
                <circle id="Oval" cx="264.000004" cy="485.000013" r="8"></circle>
                <circle id="Oval" cx="281.000005" cy="485.000013" r="8"></circle>
                <circle id="Oval" cx="298.000007" cy="485.000013" r="8"></circle>
                <circle id="Oval" cx="315.000009" cy="485.000013" r="8"></circle>
                <circle id="Oval" cx="332.00001" cy="485.000013" r="8"></circle>
                <circle id="Oval" cx="349.000012" cy="485.000013" r="8"></circle>
                <ellipse id="Oval" cx="264.000004" cy="501.999986" rx="8" ry="8"></ellipse>
                <ellipse id="Oval" cx="281.000005" cy="501.999986" rx="8" ry="8"></ellipse>
                <ellipse id="Oval" cx="298.000007" cy="501.999986" rx="8" ry="8"></ellipse>
                <ellipse id="Oval" cx="315.000009" cy="501.999986" rx="8" ry="8"></ellipse>
                <ellipse id="Oval" cx="332.00001" cy="501.999986" rx="8" ry="8"></ellipse>
                <ellipse id="Oval" cx="349.000012" cy="501.999986" rx="8" ry="8"></ellipse>
                <circle id="Oval" cx="281.000005" cy="518.999986" r="8"></circle>
                <circle id="Oval" cx="298.000007" cy="518.999986" r="8"></circle>
                <circle id="Oval" cx="315.000009" cy="518.999986" r="8"></circle>
                <circle id="Oval" cx="332.00001" cy="518.999986" r="8"></circle>
                <circle id="Oval" cx="349.000012" cy="518.999986" r="8"></circle>
                <circle id="Oval" cx="281.000005" cy="535.999978" r="8"></circle>
                <circle id="Oval" cx="298.000007" cy="535.999978" r="8"></circle>
                <circle id="Oval" cx="315.000009" cy="535.999978" r="8"></circle>
                <circle id="Oval" cx="332.00001" cy="535.999978" r="8"></circle>
                <circle id="Oval" cx="349.000012" cy="535.999978" r="8"></circle>
                <circle id="Oval" cx="281.000005" cy="552.999987" r="8"></circle>
                <circle id="Oval" cx="298.000007" cy="552.999987" r="8"></circle>
                <circle id="Oval" cx="315.000009" cy="552.999987" r="8"></circle>
                <circle id="Oval" cx="332.00001" cy="552.999987" r="8"></circle>
                <circle id="Oval" cx="349.000012" cy="552.999987" r="8"></circle>
                <circle id="Oval-Copy" cx="630.000012" cy="552.999987" r="8"></circle>
                <circle id="Oval" cx="281.000005" cy="569.999987" r="8"></circle>
                <circle id="Oval" cx="298.000007" cy="569.999987" r="8"></circle>
                <circle id="Oval" cx="315.000009" cy="569.999987" r="8"></circle>
                <circle id="Oval" cx="332.00001" cy="569.999987" r="8"></circle>
                <circle id="Oval" cx="349.000012" cy="569.999987" r="8"></circle>
                <circle id="Oval" cx="281.000005" cy="587.00001" r="8"></circle>
                <circle id="Oval" cx="298.000007" cy="587.00001" r="8"></circle>
                <circle id="Oval-Copy-2" cx="579.000007" cy="587.00001" r="8"></circle>
                <circle id="Oval" cx="315.000009" cy="587.00001" r="8"></circle>
                <circle id="Oval" cx="332.00001" cy="587.00001" r="8"></circle>
                <circle id="Oval" cx="349.000012" cy="587.00001" r="8"></circle>
                <circle id="Oval" cx="247.000002" cy="603.999982" r="8"></circle>
                <circle id="Oval" cx="264.000004" cy="603.999982" r="8"></circle>
                <circle id="Oval" cx="281.000005" cy="603.999982" r="8"></circle>
                <circle id="Oval" cx="298.000007" cy="603.999982" r="8"></circle>
                <circle id="Oval" cx="315.000009" cy="603.999982" r="8"></circle>
                <circle id="Oval" cx="332.00001" cy="603.999982" r="8"></circle>
                <circle id="Oval" cx="349.000012" cy="603.999982" r="8"></circle>
                <circle id="Oval" cx="212.999999" cy="620.999995" r="8"></circle>
                <circle id="Oval" cx="230" cy="620.999995" r="8"></circle>
                <circle id="Oval" cx="247.000002" cy="620.999995" r="8"></circle>
                <circle id="Oval" cx="264.000004" cy="620.999995" r="8"></circle>
                <circle id="Oval" cx="281.000005" cy="620.999995" r="8"></circle>
                <circle id="Oval" cx="298.000007" cy="620.999995" r="8"></circle>
                <circle id="Oval" cx="315.000009" cy="620.999995" r="8"></circle>
                <circle id="Oval" cx="332.00001" cy="620.999995" r="8"></circle>
                <circle id="Oval" cx="349.000012" cy="620.999995" r="8"></circle>
                <circle id="Oval-Copy-3" cx="630.000012" cy="620.999995" r="8"></circle>
                <circle id="Oval" cx="195.999997" cy="637.999983" r="8"></circle>
                <circle id="Oval" cx="212.999999" cy="637.999983" r="8"></circle>
                <circle id="Oval" cx="230" cy="637.999983" r="8"></circle>
                <circle id="Oval" cx="247.000002" cy="637.999983" r="8"></circle>
                <circle id="Oval" cx="264.000004" cy="637.999983" r="8"></circle>
                <circle id="Oval" cx="281.000005" cy="637.999983" r="8"></circle>
                <circle id="Oval" cx="298.000007" cy="637.999983" r="8"></circle>
                <circle id="Oval" cx="315.000009" cy="637.999983" r="8"></circle>
                <circle id="Oval" cx="332.00001" cy="637.999983" r="8"></circle>
                <circle id="Oval-Copy-7" cx="613.00001" cy="637.999983" r="8"></circle>
                <circle id="Oval" cx="195.999997" cy="654.99999" r="8"></circle>
                <circle id="Oval" cx="212.999999" cy="654.99999" r="8"></circle>
                <circle id="Oval" cx="230" cy="654.99999" r="8"></circle>
                <circle id="Oval" cx="247.000002" cy="654.99999" r="8"></circle>
                <circle id="Oval" cx="264.000004" cy="654.99999" r="8"></circle>
                <circle id="Oval" cx="281.000005" cy="654.99999" r="8"></circle>
                <circle id="Oval" cx="298.000007" cy="654.99999" r="8"></circle>
                <circle id="Oval" cx="315.000009" cy="654.99999" r="8"></circle>
                <circle id="Oval" cx="144.999992" cy="672.00001" r="8"></circle>
                <circle id="Oval" cx="161.999994" cy="672.00001" r="8"></circle>
                <circle id="Oval" cx="178.999996" cy="672.00001" r="8"></circle>
                <circle id="Oval" cx="195.999997" cy="672.00001" r="8"></circle>
                <circle id="Oval" cx="212.999999" cy="672.00001" r="8"></circle>
                <circle id="Oval" cx="230" cy="672.00001" r="8"></circle>
                <circle id="Oval" cx="247.000002" cy="672.00001" r="8"></circle>
                <circle id="Oval" cx="264.000004" cy="672.00001" r="8"></circle>
                <circle id="Oval" cx="281.000005" cy="672.00001" r="8"></circle>
                <circle id="Oval" cx="127.999991" cy="688.999987" r="8"></circle>
                <circle id="Oval" cx="144.999992" cy="688.999987" r="8"></circle>
                <circle id="Oval" cx="161.999994" cy="688.999987" r="8"></circle>
                <circle id="Oval" cx="178.999996" cy="688.999987" r="8"></circle>
                <circle id="Oval" cx="212.999999" cy="688.999987" r="8"></circle>
                <circle id="Oval" cx="230" cy="688.999987" r="8"></circle>
                <circle id="Oval" cx="247.000002" cy="688.999987" r="8"></circle>
                <circle id="Oval" cx="264.000004" cy="688.999987" r="8"></circle>
                <circle id="Oval" cx="127.999991" cy="706.000026" r="8"></circle>
                <circle id="Oval" cx="144.999992" cy="706.000026" r="8"></circle>
                <circle id="Oval" cx="161.999994" cy="706.000026" r="8"></circle>
                <circle id="Oval" cx="178.999996" cy="706.000026" r="8"></circle>
                <circle id="Oval" cx="195.999997" cy="706.000026" r="8"></circle>
                <circle id="Oval" cx="212.999999" cy="706.000026" r="8"></circle>
                <circle id="Oval" cx="144.999992" cy="723.000025" r="8"></circle>
                <circle id="Oval" cx="161.999994" cy="723.000025" r="8"></circle>
                <circle id="Oval" cx="178.999996" cy="723.000025" r="8"></circle>
                <circle id="Oval" cx="195.999997" cy="723.000025" r="8"></circle>
                <circle id="Oval" cx="212.999999" cy="723.000025" r="8"></circle>
                <circle id="Oval" cx="127.999991" cy="739.999989" r="8"></circle>
                <circle id="Oval" cx="144.999992" cy="739.999989" r="8"></circle>
                <circle id="Oval" cx="161.999994" cy="739.999989" r="8"></circle>
                <circle id="Oval" cx="178.999996" cy="739.999989" r="8"></circle>
                <circle id="Oval" cx="195.999997" cy="739.999989" r="8"></circle>
                <circle id="Oval" cx="127.999991" cy="756.999979" r="8"></circle>
                <circle id="Oval" cx="144.999992" cy="756.999979" r="8"></circle>
                <circle id="Oval" cx="161.999994" cy="756.999979" r="8"></circle>
                <circle id="Oval" cx="127.999991" cy="774.000006" r="8"></circle>
                <circle id="Oval" cx="127.999991" cy="791.000006" r="8"></circle>
                <circle id="Oval" cx="144.999992" cy="774.000006" r="8"></circle>
                <circle id="Oval" cx="195.999997" cy="94.0000165" r="8"></circle>
                <circle id="Oval" cx="230" cy="94.0000165" r="8"></circle>
                <circle id="Oval" cx="212.999999" cy="111.000004" r="8"></circle>
                <circle id="Oval" cx="195.999997" cy="111.000004" r="8"></circle>
                <circle id="Oval" cx="212.999999" cy="94.0000165" r="8"></circle>
                <circle id="Oval" cx="247.000002" cy="94.0000165" r="8"></circle>
                <circle id="Oval" cx="230" cy="111.000004" r="8"></circle>
                <circle id="Oval" cx="247.000002" cy="111.000004" r="8"></circle>
                <circle id="Oval" cx="178.999996" cy="76.9999941" r="8"></circle>
                <circle id="Oval" cx="161.999994" cy="60.0000272" r="8"></circle>
                <circle id="Oval" cx="212.999999" cy="60.0000272" r="8"></circle>
                <circle id="Oval" cx="178.999996" cy="42.9999889" r="8"></circle>
                <circle id="Oval" cx="195.999997" cy="60.0000272" r="8"></circle>
                <circle id="Oval" cx="144.999992" cy="42.9999889" r="8"></circle>
                <circle id="Oval" cx="161.999994" cy="42.9999889" r="8"></circle>
                <circle id="Oval" cx="127.999991" cy="60.0000272" r="8"></circle>
                <circle id="Oval" cx="144.999992" cy="60.0000272" r="8"></circle>
                <circle id="Oval" cx="161.999994" cy="76.9999941" r="8"></circle>
                <circle id="Oval" cx="178.999996" cy="60.0000272" r="8"></circle>
                <circle id="Oval" cx="161.999994" cy="94.0000165" r="8"></circle>
                <circle id="Oval" cx="144.999992" cy="76.9999941" r="8"></circle>
                <circle id="Oval" cx="127.999991" cy="111.000004" r="8"></circle>
                <circle id="Oval" cx="144.999992" cy="111.000004" r="8"></circle>
                <circle id="Oval" cx="144.999992" cy="127.999981" r="8"></circle>
                <circle id="Oval" cx="144.999992" cy="94.0000165" r="8"></circle>
                <circle id="Oval" cx="59.9999841" cy="127.999981" r="8"></circle>
                <circle id="Oval" cx="42.9999824" cy="127.999981" r="8"></circle>
                <circle id="Oval" cx="178.999996" cy="111.000004" r="8"></circle>
                <circle id="Oval" cx="178.999996" cy="127.999981" r="8"></circle>
                <circle id="Oval" cx="264.000004" cy="111.000004" r="8"></circle>
                <circle id="Oval" cx="195.999997" cy="144.999978" r="8"></circle>
                <circle id="Oval" cx="195.999997" cy="127.999981" r="8"></circle>
                <circle id="Oval" cx="161.999994" cy="127.999981" r="8"></circle>
                <circle id="Oval" cx="212.999999" cy="144.999978" r="8"></circle>
            </g>
            <text id="HÀ-NỘI:" sketch:type="MSTextLayer" font-family="Roboto" font-size="18" font-weight="bold" line-spacing="28" fill="#9C213B">
                <tspan x="365" y="161">HÀ NỘI:</tspan>
                <tspan x="429.933594" y="161" font-weight="normal"></tspan>
                <tspan x="365" y="189" font-size="16" font-weight="normal">- Nhà in Ngân hàng I</tspan>
                <tspan x="365" y="217" font-size="16" font-weight="normal">- Trung tâm Dịch vụ Ngân quỹ</tspan>
                <tspan x="365" y="245" font-size="16" font-weight="normal">- Dịch vụ Quảng cáo</tspan>
            </text>
            <text id="TP.-HỒ-CHÍ-MINH" sketch:type="MSTextLayer" font-family="Roboto" font-size="18" font-weight="bold" line-spacing="28" fill="#9C213B">
                <tspan x="365" y="739">TP. HỒ CHÍ MINH</tspan>
                <tspan x="504.201172" y="739" font-weight="normal"></tspan>
                <tspan x="365" y="767" font-size="16" font-weight="normal">- Nhà in Ngân hàng II</tspan>
                <tspan x="365" y="795" font-size="16" font-weight="normal">- Trung tâm Dịch vụ Ngân quỹ miền Nam</tspan>
            </text>
        </g>
    </g>
</svg>